<svg id="ehHNqiEkxM21" xmlns="http://www.w3.org/2000/svg" xmlns:xlink="http://www.w3.org/1999/xlink" viewBox="0 0 342 94" shape-rendering="geometricPrecision" text-rendering="geometricPrecision" project-id="bdfdc8c160fa470f9cddbc80540e63c3" export-id="0e4e5a0d0bb74a77b8987dbee39985c5" cached="false" width="342" height="94"><path d="M28,81.4c2.27,5.28,5.52,10.05,9.53,14.07c8.12,8.13,19.32,13.17,31.65,13.17v0v0v0v0c12.33,0,23.53-5.04,31.65-13.17c3.95-3.95,7.16-8.63,9.43-13.82-3.85-2.48-5.32-7.45-4.95-13.08-3.05-.95-5.35-3.48-5.12-6.31-2.51-.3-3.33-1.62-3.47-3.6-.69-.43-2.72-1.77-2.86-3.33-1.05.76-2.35-.19-2.53-.69-.97.61-2.81.18-3.41-.88-1.14.01-2.3-.94-2.32-1.25.64.77.38,5.06-1.28,7.79-.42,2.63-1.9,7.4-.99,10.7c1.08,3.9,2.31,5.83,4.3,8.86.55.91.7,1.16,1.45.24c1.24-1.53,3.51-3.83,5.27-3.8c1.13-.65,4.73-.04,4.67,2.61.15.01.29.03.43.06c4.1.75,3.64,5.11,1.89,6.7.23-2.84-1.98-4.13-2.35-3.34.53.59.34,1.74-.26,2.37c2.67,1.09,1.59,7.37-2.57,5.76c2.59-2.02,1.86-3.91.49-3.41.45,2.28-4.54,2.39-5.02-.29-1.11.35-2.2.3-2.94-.6-.67.55-1.5.6-2.25.07-.57.33-1.42.28-1.92-.38-.03-.04-.23.12-.26.08-1.22,2.33-3.82,2.27-4.71-.28-.71-1.03-1.61.13-1.21.81.22.38.67.83,1.3,1.44-.4.2-.84.19-1.21.11-.31-.1-.34-.11-.58-.27.83,1.53,2.05,2.51,3.29,3.39c2.1,1.3,4.31,2.16,6.58,3.29.12.06.23.13.34.21.46.29.76.71.93,1.2.96,1.68-.74,4.76-3.2,3.79-.01-.01-.03-.01-.04-.02.09.2.15.39.19.58.85,2.62-2.43,4.15-3.82,2.35v0l-.04-.04c.05.15.08.3.09.44.47,2.21-2.64,4-4.34,1.76-.05,2.37-3.48,2.96-4.34.46-.02-.05-.05-.1-.07-.15.1,3.12-3.86,3.46-4.3.54-.02.12-.05.23-.08.33c0,.01-.01.03-.01.04s-.01.03-.01.04c-.78,2.42-4.31,1.93-4.19-1.02-.02.05-.05.1-.07.15-.88,2.5-4.3,1.88-4.34-.49-1.75,2.28-4.91.37-4.3-1.9.02-.12.06-.24.1-.37-.03.03-.05.05-.08.08v0v0c-1.44,1.84-4.85.16-3.73-2.58.04-.13.09-.26.16-.39-.03.01-.06.03-.09.04-2.56,1.11-4.24-2.27-3.09-3.96.18-.39.46-.73.85-.97.11-.08.22-.15.34-.21c1.92-.94,3.81-1.72,5.64-2.68c1.68-.98,3.21-2.08,4.28-4.01-.24.16-.27.17-.58.27-.38.09-.81.09-1.21-.11.63-.61,1.08-1.06,1.3-1.44.41-.68-.49-1.85-1.2-.82-.92,2.55-3.51,2.64-4.72.31-.04.04-.23-.12-.26-.09-.5.65-1.35.7-1.92.37-.76.52-1.58.47-2.25-.08-.75.89-1.84.93-2.95.58-.5,2.67-5.48,2.48-5.02.2-1.37-.5-2.11,1.38.47,3.42-4.17,1.58-5.22-4.7-2.54-5.78-.59-.63-.78-1.78-.24-2.37-.37-.79-2.58.49-2.37,3.33-1.74-1.59-2.18-5.96,1.93-6.68.14-.02.28-.04.43-.05-.04-2.65,3.52-3.23,4.65-2.57c1.76-.03,4.05,2.29,5.28,3.83.74.93.9.68,1.45-.23c2.01-3.02,3.25-4.95,4.36-8.84.93-3.29-.52-8.08-.92-10.71-1.64-2.73-1.88-7.03-1.23-7.79-.03.31-1.19,1.26-2.33,1.24-.61,1.06-2.45,1.48-3.42.86-.19.5-1.5,1.44-2.54.67-.14,1.55-2.18,2.88-2.88,3.31-.16,1.97-.98,3.29-3.5,3.57.21,2.83-2.1,5.35-5.16,6.28.3,5.66-1.22,10.64-5.13,13.08m34.64-1.28c.09.09.17.18.24.26-.42,1.31-.57,2.5-.98,3.9-.18-1.47-1.6-2.54-3.47-2.14-.77-1.8-2.54-1.46-3.07-.91.89-1.8,1.99-3.21,3.19-5.4c1.6.15,2.82-1.19,3.43-1.63-.24,2.19-.55,4.13.66,5.92Zm13.06.07c-.09.09-.17.18-.24.25.41,1.32.56,2.51.95,3.9.19-1.47,1.62-2.53,3.48-2.12.79-1.79,2.55-1.45,3.08-.89-.88-1.8-1.97-3.22-3.16-5.42-1.6.14-2.81-1.21-3.42-1.65.24,2.21.53,4.16-.69,5.93ZM40.82,78.94c.4-.33.93-.31,1.49-.18-.22.32-.24.64-.05.96-.42-.54-1.03-.68-1.44-.78Zm56.71.21c-.4-.33-.93-.32-1.49-.18.22.32.23.65.05.96.42-.54,1.03-.68,1.44-.78Zm.97-49.24c-7.87-6.84-18.12-10.98-29.31-10.98v0v0h-.01v0c-11.06,0-21.21,4.06-29.04,10.76c2.36.9,4.42,2.92,5.65,5.29c1.93,4.12,5.98,11.92,15.02,6.26.03-.69.34-1.39,1.06-1.66l-.01-.32c-.05-.83-.68-.97-1.58-1.14-.33-.05-.58-.02-.92-.1-.93-.23-.84-.62-1.39-.81-2.91-.42-3.21-2.82-3.23-4.19-.66-1.7-3.57-1.16-3.77,1.12-3.3-2.12-1.67-6.23,1.95-7.14.27-2.02,2.46-2.02,3.57-1.9.44-.3.86-.57,1.53-.83.6-1.43,1.72-2.88,2.85-3.34.96.77,1.6,1.99,1.87,3.32.07.02.14.04.2.06c1.6-1.07,3.77-1.32,5.55-.45.35,1.69-.5,4.06-1.65,5.37c1,1.14,1.99,3.32,2.47,4.38.49-1.08,1.49-3.21,2.48-4.33-1.14-1.32-1.98-3.69-1.62-5.38c1.78-.86,3.96-.6,5.55.48.07-.02.14-.04.2-.06.27-1.32.93-2.54,1.89-3.3c1.13.47,2.25,1.92,2.83,3.36.67.27,1.09.54,1.52.84c1.11-.11,3.3-.09,3.56,1.93c3.61.94,5.21,5.05,1.9,7.15-.19-2.28-3.1-2.84-3.76-1.14-.03,1.37-.34,3.77-3.25,4.17-.55.19-.46.57-1.4.8-.33.08-.58.05-.92.1-.9.17-1.53.31-1.59,1.13l-.01.32c.72.28,1.03.98,1.05,1.67c9,5.72,13.1-2.06,15.05-6.17c1.28-2.38,3.35-4.38,5.71-5.27Z" transform="translate(-13.18-16.48)" fill="#f9c81d"/><path d="M75.17,72.3c-1.3-4.44-1.87-9.13-1.72-11.74.17-3,1.58-6.11,5.24-5.79c1.69.15,3.82,1.37,4.52,4.61c1.54-2.65,2.5-5.02,1.34-8.24.86.84,3.07,2.49,3.2,1.67-.39-2.22-1.29-2.53-2.71-6.56-.57-.36-1.06-1.1-1.34-2.09-2.13.11-4.8-1.17-6.13-2.01-2.5,5.65-14.1,5.52-16.54-.09-1.33.83-4.02,2.1-6.14,1.97-.29.99-.78,1.73-1.36,2.09-1.45,4.02-2.34,4.33-2.75,6.54.12.82,2.34-.82,3.21-1.65-1.18,3.22-.23,5.6,1.29,8.25.71-3.24,2.85-4.45,4.55-4.59c3.66-.3,5.05,2.82,5.2,5.82.13,2.61-.47,7.3-1.8,11.73c2.3,6.4,9.6,6.46,11.94.08m-12.28.91c-.36,3.16-.83,3.95.59,7.12l-.03.1c-.25.76-.45,1.54-.66,2.34-.51,2.44-1.14,4.65-2.77,6.49.19-.02.39-.01.6.05.2.05.4.15.57.27.18.13.33.29.44.48.12.21.19.45.17.72.31-.08.68-.15,1.15.12l.03.02c.24.19.38.4.46.63.02.06.03.11.04.17.04-.01.07-.03.11-.04.06-.02.11-.03.17-.04.03-.01.05-.02.08-.02.28-.08.62-.08.98.11l.03.02c.24.2.37.41.43.64l.01.03c.16-.09.35-.15.58-.15.15-.03.32-.03.51,0l.03.01c.46.17.65.41.75.66.2-.14.47-.25.86-.26l.06.01v0v0c.02.01.04.01.06.02.04,0,.07,0,.11-.01l.06.01v0v0c.09.03.17.06.25.1s.15.09.22.14c.12.1.22.21.31.34.09-.14.21-.27.34-.37.07-.05.14-.1.22-.14s.16-.07.25-.1v0v0l.06-.01c.22.01.4.04.55.09.22.05.39.12.53.22.09-.28.27-.53.77-.72l.03-.01c.36-.06.64.01.86.13.08.02.15.05.21.09.01-.03.01-.06.02-.1.06-.23.19-.44.44-.64l.03-.02c.36-.19.7-.18.98-.1.13.04.25.09.36.15.01-.07.03-.14.05-.21.08-.22.23-.43.46-.62l.03-.02c.48-.27.85-.19,1.15-.11-.01-.27.06-.51.18-.72.11-.19.27-.35.45-.48.18-.12.37-.21.57-.27.18-.05.36-.07.53-.05-1.57-1.83-2.17-4.02-2.66-6.43-.2-.8-.4-1.58-.64-2.34l-.03-.1c1.43-3.16.97-3.95.63-7.11-1.77,6.34-10.82,6.21-12.57-.09Zm-20.7,7.4c-1.09,1.38-2.21,1.55-2.74.88-1.66-.39-2.84.94-2.77,2.87-2.12-6.28,5.83-5.41,5.51-3.75ZM62.13,42.3c-.71-.78-.66-2.1.4-2c.25.02.38.08.55.25c4.44,4.32,7.97,4.16,12.43.07.18-.16.3-.22.55-.25c1.06-.1,1.1,1.23.38,2-3.61,4.12-10.72,4.05-14.31-.07Zm7.59.49c-.05-1.72-.31-3.58-.11-5.8.1-.92.22-1.85.38-2.79.12-.69,1.81-4.37,2.84-4.58c2.19-.66,2.52-2.33,2.58-3.29-.48.87-1.5,2.37-2.54,2.53-1.47-1.08-2.02-2.77-1.98-4.44c2.32-.9,4.05.53,5.02.97c1.89-.57,3.91-1.22,5.83.48c3.23-.33,4.23,1.31,2.27,3.89-.02.01-.26.37-.28.38-.28.09-2.85.85-2.79,1.38c1.34-.53,1.84-.64,2.54-.7-.29.81-.31,1.48-.43,2.22-3.13.28-2.46,3.51-3.71,4.27-2.65.9-4-1.33-3.72-3.61-.06.03-.17.3-.2.46-.47,2.93.84,3.42,1.85,3.74-.74.16-1.26.71-1.25,1.65-.4,0-.73.15-1.02.46-.72.68-3.2,2.67-5.28,2.78ZM61.9,24.02c-.17-.79-.43-1.58-1.2-2.22-.74.5-1.18,1.27-1.59,2.16.81-.13,1.79-.13,2.79.06Zm6.73,10.14c-.11-.69-1.78-4.39-2.81-4.6-2.19-.68-2.51-2.34-2.56-3.31.47.88,1.49,2.38,2.52,2.55c1.48-1.07,2.04-2.75,2.01-4.43-2.32-.91-4.06.5-5.02.94-1.89-.58-3.9-1.24-5.83.45-3.22-.35-4.23,1.29-2.29,3.88.02.01.26.37.28.38.28.09,2.85.86,2.78,1.4-1.34-.54-1.83-.65-2.54-.71.28.81.31,1.48.41,2.22c3.13.3,2.44,3.52,3.68,4.29c2.64.92,4.01-1.31,3.74-3.59.06.03.17.3.2.46.45,2.93-.86,3.42-1.88,3.73.74.17,1.25.72,1.24,1.65.4,0,.73.16,1.02.46.72.74,3.31,3.02,5.38,2.84.14-1.83.12-3.5.03-5.77-.08-.94-.2-1.88-.36-2.84ZM57.96,36.48c-.19-1.24-.87-3.26-2.59-2.87.29,1.99.66,2.56,2.59,2.87Zm-7.68-3.61c.07-2.39,1.71-3.63,3.72-3.09-.45-.78-.78-1.05-1-2.04-2.62.69-3.65,2.36-3.17,4.25.06.23.21.65.45.88Zm4.64-.47c-.08-.76-.17-1.7-.7-1.96-1.6-.99-3.73.62-3.42,2.5c1.02-1.7,2.63-2.19,4.12-.54Zm.81,38.64c3.64-.46,3.66,2.38,2.48,4.14-1.47,2.42-2.91,5-4.11,7.11.59.18.76-.26,1.37-.61c1.16-.4,1.74-.61,2.63.89-.74.88-.93,2.36.29,2.59-.74,2.63-3.63,1.74-3.97.12-.52-.12-.55-.08-.77-.27-.07.67-1.04,1.08-1.77.4-.54.86-1.82.54-2.26-.15-.58.91-1.82,1.29-3.09.7-.26,1.12-1.32,1.96-2.35,1.99-1.03.02-2.14-.35-2.05-1.23.73-.61.34-1.83.12-2.02.66-.1,1.2-.34,1.62-.5c2.05.53,5.28.03,5.73-.72-.08,0-.09-.08-.17-.05-1.16.41-2.39.9-5.72.27-1.51,1.1-4.92.86-4.14-1.11.02-.06.03-.19.1-.18c1.42.18,2.38-.77,2.8-1.68c1.73,3,5.19,2.62,7.3,1.78c0-.11.05-.3-.04-.25-.59.12-2.19.84-3.84.42-1.57-.54-2.07-.7-2.97-1.86-.11.02-.52-1.54-.13-1.85.5,1.23,2.62,1.37,2.89-.23.06-.91-.29-1.35-.64-1.73l.07-.01c1.84.89,3.49,2.63,3.96,3.92.42.78,1.55.34,1.95-.41c1.98-3.07,3.42-5.32,4.43-8.67.11-.37.2-.43.28-.8Zm4.7,16.39c-.35.21-.74.26-1.22.23c1.67-1.17,1.35-2.51.46-2.78-.3-.09-.57-.18-.94.03-1.07-.55-.8-1.4-.26-2.16c3.08-1.04,4.29,3.19,1.96,4.68ZM44.16,76.6c.48.16,1.27.99,1.11,2.05-.47,1.6-2.33.52-2.11-.13-1.93-.85-2.8.15-3.2.78-.77-2.32,2.55-3.29,4.2-2.7ZM41.08,89.91c-1.92-2.01-1.08-3.94.76-3.56.36-.38.62-.63.13-1.59-.81.18-1.51.01-1.91,0-2.23.96-1.96,5.4,1.02,5.15ZM58.73,75.22c1.5-2.21.79-5.39-2.97-4.64.75-3.73-.33-9.04.14-10.86c1.09-3.67,2.67-3.95,4.26-4.19c2.69-.13,3.84,1.95,4.08,4.84.28,3.66-.79,8.6-1.96,11.88-.54,1.5-1.81,3-3.55,2.97ZM32.26,68.03c-1.29,2.42-2.94,4.22-4.6,4.48c1.42-10.23,3.9-20.41,6.66-26.99h-.05c.34-.19.66-.56.93-1.07.6,1.27,1.28,1.74,1.91,1.6C36,49.32,32.52,59.34,32.25,65.4c-.01.88,0,1.76.01,2.63ZM27.5,73.34c1.66.29,3.92-1.74,4.76-4.18.02,5.03-1,9.8-5.83,11.76.53-3.26.81-5.53,1.07-7.58ZM25.41,59.87c-1.01,1.53-3.48,4.26-4.59,4.28.84-3.39,3.54-9.23,5.38-16.5l2.28-3.64c.54,1.08,1.21,1.61,1.86,1.66-.94,2.8-2.42,7.13-3.95,11.74-.21.61-.28,1.09-.98,2.46Zm-4.8,4.82c1.3.33,3.24-1.64,4.79-4.17-1.52,4.27-2.75,8.18-3.76,10.11-1,.97-2.5,1.99-3.88,1.12.99-2.52,1.96-4.82,2.85-7.06ZM54.55,44.02c-.84,1.43-1.9,1.82-3.04,1.32.38-.42.7-1.04.91-1.79.71.25,1.43.4,2.13.47Zm-2.38-.56c-.98,1.81-2.27,2.12-3.65,1.23.53-.58.96-1.51,1.21-2.67.78.64,1.6,1.11,2.44,1.44Zm-3.69,1.27c.63,1,1.34,1.36,1.99,1.24-1.15,2.17-3.27,5.53-3.26,7.99-.69.57-1.45.83-2.28.56-.49-2.11,2.39-8,3.13-9.44.15-.09.28-.21.42-.35Zm2.5,1.05c.1-.06.21-.13.3-.22.59.71,1.23.93,1.82.76-.65,1.93-2.36,4.26-3.02,6.81-.47.73-1.13,1.18-2.32.77-.17-2.66,1.64-5.25,3.22-8.12ZM44.24,33.92c-1.19,2.31-2.56,2.73-3.74,1.14.59-.77,1.11-1.96,1.44-3.46.91.65,1.64,1.44,2.3,2.32Zm-2.48-2.45c-1.25,3.54-2.86,4.63-4.25,3.12.62-.95,1.26-2.47,1.66-4.26.01-.03.01-.06,0-.08c1.01.3,1.85.72,2.59,1.22Zm-2.83-1.31c-1.48,6.17-4.21,6.02-5.79,1.36.18-.13.36-.26.55-.39c1.38-.83,3.35-1.59,5.24-.97Zm-5.84,1.4c.16,1.06.75,3.05,1.31,3.32-1.19,2.93-2.91,2.34-4.11-.73.81-.94,1.74-1.81,2.8-2.59Zm-2.85,2.65c.24,1.39.92,2.76,1.58,2.99.11.1.12.11.21.15-.02.06-.03.15-.06.24-.78,2.66-2.5,2.77-4.21.38.65-1.32,1.47-2.59,2.48-3.76Zm-2.5,3.8c.73,1.92,2.2,2.51,2.99,2.38-1.61,1.88-3.31,1.98-4.84.72.58-.96,1.38-2.14,1.85-3.1Zm-1.85,3.11c.78,1.72,2.1,2.02,3.29,1.37-1.8,2.25-3.26,4.42-3.66,4.73-1.72,1.34-5.94,1.16-6.6-.24c1.13-.1,3.8-1.12,5.27-3.29.52-.79,1.11-1.6,1.7-2.57Zm3.87.94l.04-.04v0c.94.93,1.96.68,2.7-.34.06.05.11.1.17.14-.79,3.31-2.41,3.89-4.14,2.11l1.31-1.82-.08-.05Zm1,3.58c.54-.13,1.03-.59,1.38-1.34.56,1.07,1.18,1.47,1.76,1.36-3.18,6.89-5.71,17.87-8.35,35.67-1.17,5.42-1.94,22.56-8.84,19.58c1.38-3.6,2.75-10.29,3.55-15.02.35-.47.7-1.02,1.04-2.05c2.69-7.43,5.08-22.61,6.9-30.48-.38.88-1.12,3.41-1.52,4.52-1.53,8.88-4.42,21.82-6,25.65-.85,2.06-2.95,4.05-5.3,3.41c6.22-11.37,12.77-34.11,15.38-41.3Zm6.72.26c.31-.19.6-.52.86-.97.8,1.1,1.65,1.31,2.34.91-1.37,4.53-2.6,9.35-3.09,16.74-.68,3.44-3.14,3.96-4.66,4.86-.05-6.65,2.47-14.75,4.55-21.54Zm3.73-.5c.11-.15.23-.31.33-.49.71,1.27,1.52,1.48,2.41,1.21-1.41,3.81-3.06,7.8-2.97,12.06.03,1.64-.32,2.71-2.74,3.18-.02-.05-.07-.07-.11-.1.53-6.29,1.6-11.22,2.99-15.62.13-.4.08-.24.09-.24Zm3.56-.08c.2-.35.28-.49.51-1c.68,1.1,1.47,1.39,2.17,1.22-.9,2.05-3.11,6.12-3.13,8.54-.01,1.45-1.84,3.26-2.82,3.55-.31-2.7,2.08-9.92,3.27-12.31Zm4.79-3.44c-.99,2.83-2.55,3.68-4.22,2.29.09-.31.25-.96.3-1.32c1.12.57,2.27-.37,2.8-2.1.36.42.73.79,1.12,1.13Zm-1.33-1.39c-.86,1.57-1.95,2-3.13,1.49.42-.68.73-1.63.85-2.75.28-.31.54-.7.78-1.17.33.6.68,1.21,1.05,1.83.14.21.29.41.45.6Zm-1.79-2.94c-1.29,2.16-2.76,2.21-3.97.04.19-.32.38-.68.54-1.08v0c.56-.39,1.09-1.14,1.51-2.18.68.97,1.29,2.07,1.92,3.22ZM34.71,35.28c.38.41.79.58,1.2.54-1.1,2.6-2.38,3.29-3.51,1.99l.04-.29v-.01c.8.13,1.63-.71,2.27-2.23Zm1.61.44c.35-.15.69-.45,1.02-.88.5.85,1.07,1.23,1.65,1.2-1.02,1.72-2.16,2.12-3.19,1.13.19-.42.36-.91.52-1.45Zm3.25.16c.27-.14.54-.36.79-.65.58,1.2,1.28,1.67,1.98,1.56-.84,1.32-1.77,1.85-2.65,1.56v-.01.01c-.31-.1-.61-.3-.9-.6-.01.01-.09-.06-.18-.14.34-.43.67-1.02.96-1.73Zm-6.75,6.04c1,.66,2.04.36,2.81-.56.09.11.17.21.26.3-.85,3.12-2.07,3.98-3.66,2.45.25-.6.46-1.34.59-2.19Zm3.19-.14c.97.87,2.05.45,2.79-.71.13.21.27.4.4.55-1.01,3.48-2.44,4.34-3.97,2.75.35-.66.63-1.55.78-2.59Zm3.25-.1c.86.94,1.82.86,2.55.09.11.19.22.35.34.5-.74,2.87-2.1,3.67-3.78,2.62.42-.78.75-1.89.89-3.21Zm2.94.65c.92,1.1,1.95.92,2.71-.07.22.25.44.44.66.56-.12.31-.25.6-.38.85l-.03-.03.02.04c-.98,1.88-2.27,2.17-3.64,1.2.37-.65.61-1.53.66-2.55Zm3.74-3.09c-.4,1.16-.88,1.95-1.42,2.42-.02-.01-.03-.02-.05-.03.01.02.02.03.03.05-.79.88-1.69.78-2.63.02.55-.62.97-1.62,1.11-2.87.89,1.46,2,1.46,2.96.41Zm-2.97-.42c-1.02,2.7-2.52,3.28-4.14,2.21.34-.54.6-1.23.76-2.02.96.53,2.01-.03,2.84-1.36.17.46.35.85.54,1.17Zm-3.51.11c-.97,2.27-2.3,2.94-3.73,2.3.51-.67.9-1.63,1.04-2.77.56.15,1.14-.1,1.67-.67.07.07.15.14.13.16.27.45.57.78.89.98Zm-2.72-.48c-1.01,2.53-2.41,3.58-3.95,2.8.29-.53.53-1.2.67-1.97.75.18,1.54-.47,2.17-1.74.35.5.72.8,1.11.91Zm-3.44.78c-.83,2.06-1.91,3.01-3.09,2.38.31-.37.59-.81.82-1.31.59-.26,1.04-.97,1.28-2.02.31.5.65.81.99.95Zm-3.18,2.48c-.02.02-.03.04-.05.05l.05-.05Zm-.22.23c-.02.01-.03.03-.05.04l.05-.04ZM61.11,91.09c-.75.93-1.54,1.86-2.37,2.74-.39.41-.78.81-1.18,1.2-.42.38-.85.76-1.29,1.11-.53.42-1.06.85-1.61,1.26-.54.4-1.09.79-1.64,1.12v0c-.14.08-.28.15-.42.21s-.29.1-.43.13c-.73.14-1.46-.11-2.01-.82v0c-.08-.1-.14-.21-.2-.32-.23-.46-.27-.99-.16-1.48.04-.16.09-.31.15-.46.11-.17.25-.32.41-.45.08-.06.17-.12.27-.17.94-.49,1.81-.9,2.62-1.29c1.71-.82,3.15-1.52,4.48-2.46.71-.46,1.39-.99,2.05-1.63.14-.02.29-.01.45.03s.31.11.45.2c.13.09.25.21.33.35.11.2.16.45.1.73Zm1.38.24c.17.14.28.28.33.43.05.14.05.29.02.45-.21.45-.44.91-.7,1.39-.25.48-.52.96-.81,1.44-.15.26-.31.52-.47.78-.2.31-.4.63-.61.94-.48.71-.97,1.41-1.49,2.11-.84,1.04-1.72,2.02-2.62,2.85v0v0c-.09.08-.18.16-.28.23s-.2.13-.31.18c-.54.26-1.21.28-1.98-.21-.12-.11-.23-.23-.31-.36-.28-.41-.39-.88-.36-1.34.01-.17.05-.35.1-.51.08-.17.17-.32.29-.45.09-.1.19-.19.3-.27v0c.42-.3.84-.62,1.25-.94s.81-.65,1.21-.99c.62-.53,1.22-1.07,1.8-1.64.79-.73,1.55-1.49,2.28-2.28.23-.25,1.25-1.6,1.61-1.89.21-.05.46-.07.75.08Zm1.9.79c.16.13.25.27.29.42.05.16.05.33.04.51-.05.15-.1.29-.15.44-.96,2.51-2.01,4.99-3.01,7.48-.17.4-.35.79-.52,1.18-.02.06-.05.11-.07.17-.24.49-.5.94-.66,1.29-.03.06-.05.11-.08.16-.23.43-.83.78-1.22.92-.38.14-.79.16-1.27-.06-.06-.03-.11-.05-.15-.08-.1-.06-.2-.13-.28-.2-.63-.42-.78-1.12-.63-1.8.08-.28.21-.55.38-.8.05-.09.11-.18.17-.26.6-.75,1.18-1.49,1.74-2.24.06-.07.11-.15.17-.22.8-1,1.56-2.06,2.25-3.13.78-1.19,1.49-2.4,2.11-3.66.09-.07.21-.15.36-.2.17-.03.34-.01.53.08Zm1.69.57c.48.18.53.47.58.78l.01.06c-.06.4-.11.8-.17,1.19l-1.05,6.1c-.26,1.2-.56,2.37-.91,3.53v0v0v0l-.01.03c-.05.13-.1.26-.16.38-.07.15-.16.28-.25.41-1.15,1.38-3.42.73-3.18-1.46.01-.04.03-.07.04-.12v0v0c.08-.22.16-.43.25-.65.26-.64.52-1.28.79-1.92c1.09-2.56,2.23-5.13,3.14-7.4.07-.17.14-.34.2-.51.07-.11.18-.24.33-.33.07-.04.15-.08.24-.1.05-.01.1,0,.15.01Zm4.35.46c.62.23.6.94.73,1.62.23,1.44.46,2.87.74,4.29.12.6.24,1.19.38,1.79l.63,3.41.04.23v0c.01.07.02.13.03.2v.02c.09.98-.36,1.68-1.39,1.87v0c-.05.01-.11.02-.17.03-.08.01-.14.01-.2.01-.98.02-1.66-.59-1.76-1.55c0-.06-.01-.12-.01-.17c0-1.84,0-3.64-.01-5.43-.01-1.72-.01-3.44-.01-5.2v-.18c.08-.28.25-.58.5-.77.05-.04.1-.07.16-.1.05-.02.09-.04.14-.06.07-.02.14-.02.2-.01Zm-2.32-.03c.02.01.04.02.06.03.06.03.11.06.16.1.25.19.42.5.49.77v.18c-.01,1.76-.03,3.48-.04,5.2-.02,1.79-.03,3.59-.04,5.43c0,.06,0,.13-.01.2-.07.84-.57,1.41-1.33,1.56-.14.03-.28.04-.43.03-.06,0-.13-.01-.2-.01-.06-.01-.11-.02-.17-.03v0c-1.07-.21-1.51-.95-1.37-2c.01-.06.02-.13.03-.2v0l.67-3.52c.14-.59.27-1.19.39-1.78.29-1.42.54-2.85.77-4.28.15-.77.12-1.57,1.02-1.68Zm11.25.63c.84.86,1.71,1.68,2.62,2.43.52.43,1.06.86,1.6,1.27s1.08.8,1.63,1.13v0c.14.08.28.16.42.21.14.06.29.1.43.13.72.14,1.46-.1,2.01-.8v0c.08-.1.14-.21.2-.32.23-.46.27-.99.17-1.48-.02-.08-.04-.17-.07-.25-.12-.23-.29-.43-.49-.59-.08-.07-.17-.12-.27-.17-.94-.49-1.8-.91-2.61-1.31-2.17-1.06-3.93-1.92-5.55-3.35-.29-.24-.58-.49-.86-.76-.16-.05-.35-.04-.54.01-.16.04-.31.11-.45.2-.13.09-.25.21-.34.34-.12.19-.17.43-.11.71.71.9,1.44,1.77,2.21,2.6Zm-.99,3.66c.35.49.71.97,1.08,1.46.84,1.06,1.72,2.04,2.62,2.89v0c.09.08.18.16.28.23s.2.13.31.18c.54.27,1.21.29,1.98-.2.12-.11.23-.23.31-.36.28-.41.4-.88.37-1.34-.01-.1-.02-.21-.04-.31-.08-.21-.2-.41-.34-.58-.09-.1-.19-.19-.29-.27v0c-.42-.31-.84-.62-1.25-.95-.4-.32-.8-.65-1.2-1-1.12-.97-2.18-2-3.19-3.09-.29-.3-.58-.61-.87-.92-.21-.23-1.06-1.37-1.49-1.8-.23-.07-.51-.13-.86.04-.17.14-.28.28-.33.42s-.06.29-.02.45c.21.45.44.91.69,1.39s.52.97.8,1.45c.15.26.31.52.47.78.2.31.4.63.6.94.12.21.24.4.37.59Zm-1.72,3.65c.15.33.3.66.45.99.28.61.6,1.15.79,1.58.03.06.05.11.08.16.23.44.83.79,1.21.93s.78.17,1.27-.05c.06-.02.11-.05.15-.07.1-.06.2-.13.28-.2.56-.37.75-.96.68-1.57-.07-.33-.22-.66-.41-.96-.05-.09-.11-.18-.17-.26-.59-.75-1.17-1.5-1.72-2.25-.42-.55-.82-1.11-1.21-1.68-.41-.58-.81-1.17-1.19-1.76-.78-1.19-1.48-2.41-2.09-3.67-.02-.01-.04-.03-.06-.04-.05-.02-.1-.04-.15-.06-.19-.06-.42-.06-.67.05-.16.13-.25.27-.29.42-.05.16-.05.33-.05.51.05.15.1.3.15.44.93,2.5,1.97,4.98,2.95,7.49v0ZM96.16,80.82c1.08,1.39,2.2,1.56,2.73.9c1.66-.38,2.84.96,2.75,2.88c2.16-6.27-5.8-5.45-5.48-3.78ZM76.8,24.1c.17-.78.44-1.58,1.21-2.22.74.51,1.17,1.28,1.57,2.17-.8-.13-1.79-.13-2.78.05Zm3.85,12.49c.2-1.23.89-3.25,2.61-2.86-.3,1.99-.68,2.55-2.61,2.86Zm7.71-3.57c-.05-2.39-1.68-3.64-3.7-3.11.45-.77.78-1.05,1.01-2.04c2.62.71,3.64,2.38,3.14,4.27-.06.23-.21.66-.45.88Zm-4.65-.49c.09-.76.18-1.7.72-1.95c1.61-.98,3.72.65,3.4,2.52-1.01-1.72-2.61-2.21-4.12-.57ZM82.67,71.16c-3.64-.49-3.68,2.36-2.5,4.12c1.45,2.43,2.87,5.02,4.06,7.13-.6.18-.76-.26-1.37-.62-1.16-.4-1.74-.62-2.63.88.73.89.91,2.37-.3,2.59.72,2.64,3.62,1.77,3.97.15.52-.12.55-.08.77-.26.06.67,1.03,1.08,1.77.41.54.86,1.82.55,2.26-.13.57.91,1.81,1.3,3.08.72.25,1.12,1.31,1.97,2.33,2c1.03.03,2.14-.33,2.06-1.22-.73-.62-.33-1.83-.11-2.02-.66-.1-1.19-.35-1.61-.51-2.05.52-5.28,0-5.72-.75.08,0,.09-.08.17-.05c1.16.42,2.38.92,5.72.31c1.51,1.11,4.92.89,4.14-1.09-.02-.06-.03-.19-.1-.18-1.42.18-2.37-.79-2.79-1.69-1.75,2.98-5.21,2.59-7.31,1.74.01-.11-.05-.3.04-.25.59.13,2.18.85,3.83.45c1.57-.53,2.08-.69,2.98-1.84.11.02.53-1.54.14-1.84-.51,1.22-2.63,1.36-2.89-.25-.06-.91.3-1.35.66-1.72l-.06-.03c-1.85.88-3.51,2.61-3.98,3.9-.42.78-1.55.33-1.95-.43-1.96-3.09-3.39-5.34-4.38-8.7-.11-.39-.2-.45-.28-.82Zm-4.8,16.36c.35.21.74.27,1.22.24-1.66-1.18-1.33-2.52-.45-2.78.3-.09.58-.17.94.04c1.07-.55.81-1.39.28-2.15-3.07-1.08-4.31,3.14-1.99,4.65ZM94.2,76.79c-.49.15-1.27.98-1.13,2.04.46,1.6,2.32.54,2.12-.12c1.94-.83,2.8.16,3.19.79.8-2.3-2.53-3.29-4.18-2.71Zm3.01,13.33c1.93-2,1.1-3.94-.74-3.57-.35-.38-.61-.64-.12-1.59.81.19,1.51.02,1.91.01c2.22.98,1.92,5.41-1.05,5.15ZM79.65,75.32c-1.49-2.22-.76-5.4,3-4.62-.72-3.74.39-9.04-.07-10.86-1.07-3.68-2.65-3.97-4.23-4.21-2.69-.15-3.85,1.93-4.11,4.81-.3,3.66.74,8.6,1.89,11.9.51,1.49,1.77,3,3.52,2.98Zm26.51-7.03c1.28,2.43,2.91,4.23,4.57,4.51-1.35-10.24-3.78-20.44-6.5-27.03h.05c-.34-.2-.65-.57-.93-1.08-.6,1.26-1.29,1.73-1.92,1.59c1.09,3.28,4.51,13.32,4.74,19.38.02.89,0,1.76-.01,2.63Zm4.72,5.35c-1.66.28-3.91-1.76-4.74-4.21-.05,5.03.94,9.81,5.75,11.8-.49-3.27-.76-5.54-1.01-7.59Zm2.18-13.46c1,1.53,3.45,4.29,4.56,4.31-.82-3.39-3.48-9.25-5.28-16.54l-2.25-3.65c-.54,1.08-1.22,1.6-1.87,1.64.92,2.81,2.38,7.14,3.88,11.76.2.62.27,1.1.96,2.48Zm4.77,4.85c-1.3.32-3.23-1.66-4.77-4.2c1.5,4.28,2.7,8.2,3.7,10.13c1,.98,2.49,2.01,3.87,1.15-.97-2.53-1.92-4.84-2.8-7.08ZM84.02,44.14c.83,1.44,1.89,1.83,3.03,1.34-.38-.43-.7-1.04-.9-1.79-.71.25-1.43.39-2.13.45Zm2.38-.54c.97,1.81,2.26,2.13,3.64,1.25-.52-.59-.95-1.51-1.19-2.67-.78.63-1.61,1.1-2.45,1.42Zm3.69,1.29c-.63.99-1.34,1.35-2,1.23c1.14,2.18,3.24,5.55,3.21,8.01.69.58,1.45.84,2.27.57.51-2.11-2.34-8.01-3.07-9.46-.14-.09-.28-.21-.41-.35Zm-2.52,1.04c-.1-.06-.2-.13-.3-.22-.59.71-1.24.92-1.82.75.64,1.93,2.33,4.28,2.98,6.83.46.73,1.12,1.19,2.31.78.19-2.66-1.61-5.26-3.17-8.14Zm6.82-11.82c1.17,2.32,2.54,2.74,3.73,1.16-.59-.77-1.09-1.97-1.42-3.47-.91.65-1.65,1.43-2.31,2.31Zm2.49-2.43c1.23,3.55,2.83,4.65,4.23,3.14-.61-.95-1.24-2.47-1.63-4.27-.01-.03-.01-.06,0-.08-1.01.3-1.86.71-2.6,1.21Zm2.84-1.3c1.45,6.18,4.18,6.05,5.78,1.4-.18-.13-.36-.26-.54-.39-1.38-.84-3.34-1.61-5.24-1.01Zm5.83,1.44c-.17,1.06-.77,3.04-1.33,3.31c1.18,2.93,2.89,2.35,4.11-.71-.8-.94-1.73-1.81-2.78-2.6Zm2.84,2.67c-.25,1.39-.94,2.75-1.6,2.98-.11.1-.12.11-.21.15.02.06.03.15.06.24.76,2.66,2.48,2.78,4.2.4-.63-1.32-1.45-2.6-2.45-3.77Zm2.48,3.82c-.74,1.92-2.21,2.5-3,2.36c1.6,1.89,3.3,2,4.83.75-.58-.97-1.38-2.16-1.83-3.11Zm1.83,3.11c-.79,1.71-2.12,2.01-3.29,1.35c1.79,2.27,3.23,4.44,3.63,4.75c1.71,1.35,5.93,1.2,6.6-.2-1.13-.1-3.79-1.14-5.25-3.32-.53-.79-1.11-1.6-1.69-2.58Zm-3.89.92l-.04-.04v0c-.94.93-1.96.67-2.7-.36-.06.05-.11.09-.17.14.77,3.31,2.38,3.9,4.13,2.14l-1.3-1.82.08-.06Zm-1.02,3.57c-.54-.13-1.03-.6-1.37-1.35-.56,1.06-1.19,1.46-1.77,1.35c3.14,6.91,5.6,17.91,8.13,35.72c1.13,5.43,1.8,22.57,8.72,19.63-1.36-3.61-2.68-10.31-3.46-15.04-.35-.48-.69-1.03-1.03-2.06-2.64-7.44-4.94-22.64-6.72-30.52.38.89,1.1,3.42,1.49,4.53c1.48,8.89,4.29,21.84,5.85,25.69.84,2.07,2.93,4.07,5.28,3.45-6.13-11.41-12.55-34.19-15.12-41.4Zm-6.72.22c-.31-.19-.6-.52-.85-.97-.81,1.1-1.66,1.3-2.35.9c1.34,4.54,2.54,9.36,2.99,16.76.66,3.44,3.11,3.98,4.63,4.89.1-6.66-2.37-14.78-4.42-21.58Zm-3.72-.53c-.11-.15-.23-.31-.33-.49-.71,1.26-1.53,1.47-2.42,1.19c1.39,3.82,3.01,7.82,2.9,12.07-.04,1.64.3,2.71,2.72,3.2.02-.05.07-.07.11-.1-.49-6.29-1.53-11.23-2.89-15.64-.13-.38-.08-.22-.09-.23Zm-3.57-.09c-.19-.36-.28-.49-.51-1-.68,1.09-1.48,1.38-2.18,1.21.88,2.06,3.07,6.14,3.08,8.56c0,1.45,1.82,3.28,2.8,3.57.34-2.71-2-9.94-3.19-12.34Zm-4.76-3.48c.98,2.83,2.53,3.7,4.21,2.32-.09-.31-.25-.96-.29-1.32-1.13.56-2.26-.38-2.79-2.12-.36.42-.74.8-1.13,1.12Zm1.34-1.37c.85,1.58,1.94,2.01,3.12,1.51-.42-.68-.72-1.63-.83-2.76-.27-.31-.53-.7-.77-1.18-.34.6-.68,1.21-1.06,1.82-.15.22-.3.42-.46.61Zm1.81-2.94c1.28,2.17,2.75,2.23,3.97.06-.19-.32-.37-.68-.54-1.09-.56-.39-1.08-1.15-1.5-2.19-.68.99-1.29,2.08-1.93,3.22Zm11.74-2.19c-.38.41-.8.58-1.21.53c1.08,2.6,2.36,3.31,3.5,2.02l-.04-.3v-.01c-.79.12-1.62-.71-2.25-2.24Zm-1.61.43c-.35-.15-.69-.45-1.01-.88-.5.85-1.08,1.22-1.66,1.19c1.01,1.73,2.15,2.13,3.18,1.15-.19-.43-.36-.92-.51-1.46Zm-3.25.14c-.27-.14-.54-.36-.79-.66-.58,1.19-1.29,1.66-1.99,1.55.84,1.32,1.75,1.86,2.64,1.57v-.01.01c.31-.1.61-.3.91-.59.01.01.09-.06.19-.13-.35-.44-.68-1.02-.96-1.74Zm6.71,6.08c-1,.65-2.04.35-2.81-.58-.09.11-.17.21-.26.3.83,3.13,2.05,3.99,3.65,2.48-.25-.61-.45-1.35-.58-2.2Zm-3.19-.16c-.98.87-2.05.44-2.79-.73-.13.21-.27.39-.41.55.99,3.48,2.42,4.35,3.95,2.78-.34-.66-.6-1.55-.75-2.6Zm-3.25-.12c-.87.94-1.82.84-2.55.07-.11.19-.23.35-.34.49.72,2.88,2.08,3.68,3.77,2.65-.42-.78-.74-1.89-.88-3.21Zm-2.95.63c-.93,1.1-1.96.91-2.71-.09-.21.25-.44.44-.66.56.12.31.24.6.37.85l.03-.03-.02.04c.97,1.88,2.25,2.18,3.63,1.22-.35-.64-.59-1.52-.64-2.55Zm-3.71-3.11c.4,1.16.87,1.96,1.4,2.43.02-.01.03-.02.05-.03-.01.02-.02.03-.03.05.79.89,1.69.79,2.63.04-.55-.62-.96-1.63-1.1-2.87-.89,1.45-2,1.44-2.95.38Zm2.97-.4c1,2.71,2.5,3.3,4.13,2.24-.33-.54-.59-1.23-.74-2.03-.96.52-2.01-.04-2.83-1.38-.18.46-.37.85-.56,1.17Zm3.51.13c.95,2.28,2.28,2.95,3.72,2.33-.51-.67-.89-1.64-1.03-2.78-.56.14-1.14-.11-1.67-.68-.07.07-.15.14-.13.16-.27.45-.57.77-.89.97Zm2.72-.46c1,2.53,2.39,3.6,3.94,2.82-.29-.53-.52-1.21-.66-1.98-.75.17-1.53-.48-2.16-1.76-.35.51-.73.81-1.12.92Zm3.44.79c.82,2.07,1.89,3.02,3.07,2.4-.31-.37-.59-.81-.81-1.32-.59-.27-1.04-.98-1.27-2.03-.31.51-.65.82-.99.95Zm3.16,2.51c.02.02.03.04.05.05l-.05-.05Zm.22.23c.02.01.03.03.05.04l-.05-.04ZM73.39,103.49c.08.27.16.54.25.8v0v0v0c.05.16.11.31.18.45.07.15.16.28.25.41c1.13,1.36,3.35.77,3.19-1.35-.01-.04-.03-.09-.05-.14v0v0c-.26-.7-.53-1.41-.8-2.11-.07-.18-.15-.36-.22-.54-1.07-2.56-2.2-5.14-3.09-7.42-.07-.17-.13-.34-.2-.51-.07-.11-.18-.24-.33-.33-.11-.03-.24-.04-.39-.02-.48.18-.53.46-.59.77l-.01.06c.05.4.11.8.16,1.2l1.01,6.11c.2.89.4,1.76.64,2.62Z" transform="translate(-13.18-16.48)" clip-rule="evenodd" fill="#fefefe" fill-rule="evenodd"/><path d="M72.97,81.78c.39,2.53.75,4.99,1.14,7.52.05.37.49.33.41-.07-.39-2.53-.88-4.98-1.27-7.51-.05-.32-.31-.19-.28.06m-2.02.27c.19,2.55.36,5.03.56,7.59.02.37.46.37.41-.03-.2-2.55-.49-5.04-.68-7.59-.03-.34-.3-.23-.29.03Zm-1.94,7.87c-.11,0-.21-.09-.2-.29.02-2.56.14-5.06.16-7.62c0-.17.07-.23.14-.22.07-.01.14.05.14.22-.04,2.56.02,5.06-.03,7.62c0,.2-.1.29-.21.29Zm-3.76-8.23c-.45,2.52-.87,4.97-1.33,7.49-.06.37-.49.31-.41-.08.45-2.52,1-4.96,1.46-7.47.06-.34.32-.2.28.06Zm2.01.32c-.26,2.55-.49,5.02-.74,7.57-.03.37-.47.35-.41-.04.26-2.55.61-5.02.87-7.57.03-.34.3-.22.28.04Zm3.23,3.83c-.03-1.27-.06-2.54-.09-3.87.02-.3.12-.51.26-.64.09-.08.19-.13.3-.14.11-.02.23,0,.35.06.15.07.29.19.4.37.09.15.12.25.14.42.16,1.25.3,2.45.46,3.66.18,1.31.35,2.62.51,3.92.01.64-.29,1.53-.96,1.58-.71.06-1.19-.85-1.28-1.51-.04-1.34-.07-2.6-.09-3.85Zm-2.21-3.7c-.1,1.24-.15,2.45-.2,3.66-.05,1.32-.1,2.65-.22,3.97v.01c-.03.71.38,1.66,1.06,1.7.02,0,.03,0,.05,0h.02v0v0h.01.01v0v0v0v0v0v0v0v0v0v0v0v0v0v0v0v0v0v0v0v0v0v0v0v0v0v0v0h.01v0h.01v0v0v0v0v0v0v0v0v0v0v0v0v0v0v0v0v0v0v0v0v0v0v0v0v0v0v0v0v0v0v0h.01.01v0v0h.02c.02,0,.03,0,.05,0c.68-.02.98-.96.97-1.67v-.01c-.09-1.33-.11-2.65-.12-3.98-.02-1.21-.03-2.42-.11-3.66-.01-.22-.03-.36-.15-.55-.08-.12-.17-.21-.27-.28s-.2-.11-.31-.12v0c-.02,0-.04-.01-.06-.01v0v0v0v0v0h-.01-.01-.01v0v0v0v0v0v0v0v0v0v0h-.02v0v0c-.01,0-.03,0-.04,0v0c-.11.02-.21.05-.31.12-.1.06-.19.15-.27.27-.08.19-.1.33-.12.55Zm-.65,3.66c.06-1.27.12-2.54.19-3.86-.01-.3-.11-.52-.24-.65-.08-.08-.19-.13-.3-.15s-.23,0-.35.05c-.15.06-.3.19-.41.36-.09.14-.13.25-.15.42-.19,1.25-.36,2.45-.55,3.64-.21,1.3-.41,2.61-.61,3.9-.02.64.39,1.55,1.05,1.62.71.07,1.08-.84,1.19-1.49.07-1.33.12-2.58.18-3.84Zm-3.17-4.39l-1.83,7.42v0c-.14.63.25,1.18.84,1.36.61.16,1.13-.21,1.34-.83.37-2.54.78-5.09,1.16-7.63.05-.32.01-.49-.22-.75-.1-.12-.24-.2-.38-.24s-.3-.03-.44.03c-.33.13-.4.33-.47.64Zm9.31.12l1.65,7.46c.08.4-.24,1.05-.83,1.22-.67.19-1.17-.12-1.36-.74-.31-2.55-.66-5.1-.97-7.66-.04-.32,0-.49.24-.74.11-.12.24-.2.39-.23.14-.03.3-.02.44.04.31.13.37.34.44.65Zm1.4-9.23c-1.3-4.44-1.87-9.13-1.72-11.74.17-3,1.58-6.11,5.24-5.79c1.69.15,3.82,1.37,4.52,4.61c1.54-2.65,2.5-5.02,1.34-8.24.86.84,3.07,2.49,3.2,1.67-.39-2.22-1.29-2.53-2.71-6.56-.57-.36-1.06-1.1-1.34-2.09-2.13.11-4.8-1.17-6.13-2.01-2.5,5.65-14.1,5.52-16.54-.09-1.33.83-4.02,2.1-6.14,1.97-.29.99-.78,1.73-1.36,2.09-1.44,4.02-2.34,4.33-2.75,6.54.12.82,2.34-.82,3.21-1.65-1.18,3.22-.23,5.6,1.29,8.25.72-3.24,2.85-4.45,4.55-4.59c3.66-.3,5.05,2.82,5.2,5.82.13,2.61-.47,7.3-1.8,11.73c2.3,6.4,9.6,6.46,11.94.08ZM67.8,94.15c.01-.14.17-.12.18,0c.07,3.28-.04,6.86-.33,10.7-.12.41-.32.61-.78.53-.41-.19-.51-.5-.46-.77.59-3.06,1.1-6.5,1.39-10.46Zm-2.21-.52c.04-.14.19-.09.18.04-.63,3.22-1.5,6.69-2.6,10.38-.21.38-.44.53-.87.36-.36-.27-.39-.6-.29-.85c1.23-2.88,2.46-6.13,3.58-9.93Zm-1.91-.71c.07-.13.21-.05.17.08-.99,3.22-2.62,6.53-4.78,9.93-.29.34-.55.44-.95.18-.31-.35-.27-.69-.12-.92c2.17-2.69,4.28-5.74,5.68-9.27Zm-1.8-.82c.1-.12.21,0,.15.11-1.81,3.03-4.14,5.9-6.82,8.65-.36.27-.63.31-.97-.03-.22-.41-.12-.73.09-.92c2.78-2.2,5.51-4.72,7.55-7.81Zm-1.65-1.55c.12-.09.21.05.12.14-2.32,2.57-5.12,4.88-8.49,6.93-.41.18-.78.14-1.03-.27-.13-.45.04-.79.28-.93c3.18-1.43,6.42-3.21,9.12-5.87Zm2.66-17.34c-.36,3.16-.83,3.95.59,7.12l-.03.1c-.25.76-.45,1.54-.66,2.34-.51,2.44-1.14,4.65-2.77,6.49.19-.02.39,0,.6.05.2.05.4.15.57.27.18.13.33.29.44.48.12.21.19.45.17.72.31-.08.68-.15,1.15.12l.03.02c.24.19.38.4.46.63.02.06.03.11.04.17.04-.01.07-.03.11-.04.06-.02.11-.03.17-.04.03-.01.05-.02.08-.02.28-.08.62-.08.98.11l.03.02c.24.2.37.41.43.64l.01.03c.16-.09.35-.15.58-.15.15-.03.32-.03.51,0l.03.01c.46.17.65.41.75.66.2-.14.47-.25.86-.26l.06.01v0v0c.02.01.04.01.06.02.04,0,.07,0,.11-.01l.06.01v0v0c.09.03.17.06.25.1s.15.09.22.14c.12.1.22.21.31.34.09-.14.21-.27.34-.37.07-.05.14-.1.22-.14s.16-.07.25-.1v0v0l.06-.01c.22.01.4.04.55.09.22.05.39.12.53.22.09-.28.27-.53.77-.72l.03-.01c.36-.06.64,0,.86.13.08.02.15.05.21.09.01-.03.01-.06.02-.1.06-.23.19-.44.44-.64l.03-.02c.36-.19.7-.18.98-.1.13.04.25.09.36.15.01-.07.03-.14.05-.21.08-.22.23-.43.46-.62l.03-.02c.48-.27.85-.19,1.15-.11-.01-.27.06-.51.18-.72.11-.19.27-.35.45-.48.17-.12.37-.21.57-.27.18-.05.36-.07.53-.05-1.57-1.83-2.17-4.02-2.66-6.43-.2-.8-.4-1.58-.64-2.34l-.03-.1c1.43-3.16.97-3.95.63-7.11-1.77,6.34-10.82,6.21-12.57-.09Zm-20.7,7.4c-1.09,1.38-2.21,1.55-2.74.88-1.66-.39-2.84.94-2.77,2.87-2.12-6.28,5.83-5.41,5.51-3.75Zm20.45-.49c.09.09.17.18.24.26-.42,1.31-.57,2.5-.98,3.9-.18-1.47-1.6-2.54-3.47-2.14-.77-1.8-2.54-1.46-3.07-.91.89-1.8,1.99-3.21,3.19-5.4c1.6.15,2.82-1.19,3.43-1.63-.24,2.19-.55,4.13.66,5.92ZM62.13,42.3c-.71-.78-.66-2.1.4-2c.25.02.38.08.55.25c4.44,4.32,7.97,4.16,12.43.07.18-.16.3-.22.55-.25c1.06-.1,1.1,1.23.38,2-3.61,4.12-10.72,4.05-14.31-.07Zm7.59.49c-.05-1.72-.31-3.58-.11-5.8.1-.92.22-1.85.38-2.79.12-.69,1.81-4.37,2.84-4.58c2.19-.66,2.52-2.33,2.58-3.29-.48.87-1.5,2.37-2.54,2.53-1.47-1.08-2.02-2.77-1.98-4.44c2.32-.9,4.05.53,5.02.97c1.89-.57,3.91-1.22,5.83.48c3.22-.33,4.23,1.31,2.26,3.89-.02.01-.26.37-.28.38-.28.09-2.85.85-2.79,1.38c1.34-.53,1.84-.64,2.54-.7-.29.81-.31,1.48-.43,2.22-3.13.28-2.46,3.51-3.71,4.27-2.65.9-4-1.33-3.72-3.61-.06.03-.17.3-.2.46-.47,2.93.84,3.42,1.85,3.74-.74.16-1.26.71-1.25,1.65-.4,0-.73.15-1.02.46-.71.68-3.19,2.67-5.27,2.78ZM61.9,24.02c-.17-.79-.43-1.58-1.2-2.22-.74.5-1.18,1.27-1.59,2.16.81-.13,1.79-.13,2.79.06Zm6.73,10.14c-.11-.69-1.78-4.38-2.81-4.6-2.19-.68-2.51-2.34-2.56-3.31.47.88,1.49,2.38,2.52,2.55c1.48-1.07,2.04-2.75,2.01-4.43-2.32-.91-4.06.5-5.02.94-1.89-.58-3.9-1.24-5.83.45-3.22-.35-4.23,1.29-2.29,3.88.02.01.26.37.28.38.28.09,2.85.86,2.78,1.4-1.34-.54-1.83-.65-2.54-.71.28.81.31,1.48.41,2.22c3.13.3,2.44,3.52,3.68,4.29c2.64.92,4.01-1.31,3.74-3.59.06.03.17.3.2.46.45,2.93-.86,3.42-1.88,3.73.74.17,1.25.72,1.24,1.65.4,0,.73.16,1.02.46.72.74,3.31,3.02,5.38,2.84.14-1.83.12-3.5.03-5.77-.08-.94-.2-1.88-.36-2.84ZM57.49,26.55c-.93-.05-1.72.65-1.77,1.58-.06.93.65,1.72,1.58,1.77.93.06,1.72-.65,1.77-1.58.05-.92-.66-1.71-1.58-1.77Zm-.05.73c-.53-.03-.98.37-1.01.9s.37.98.9,1.01.98-.37,1.01-.9-.37-.98-.9-1.01Zm-.03.47c-.26-.02-.49.19-.5.45-.02.26.19.49.45.5.26.02.49-.18.5-.45.02-.26-.18-.48-.45-.5Zm.06-.87c-.75-.04-1.39.53-1.43,1.27-.04.75.53,1.39,1.27,1.43.75.04,1.39-.53,1.43-1.27.05-.75-.53-1.39-1.27-1.43Zm9.29-1.74c0,.8-.4,1.68-1.16,2.11-.26-.08-.54-.5-.7-.63-.27-.22-.37-.49-.51-.79.68-.68,1.37-.67,2.37-.69Zm-8.8,11.34c-.19-1.24-.87-3.26-2.59-2.87.29,1.99.66,2.56,2.59,2.87Zm-7.68-3.61c.07-2.39,1.71-3.63,3.72-3.09-.45-.78-.78-1.05-1-2.04-2.62.69-3.65,2.36-3.17,4.25.06.23.21.65.45.88Zm4.64-.47c-.08-.76-.17-1.7-.7-1.96-1.6-.99-3.73.62-3.42,2.5c1.02-1.7,2.63-2.19,4.12-.54Zm.81,38.64c3.64-.46,3.66,2.38,2.48,4.14-1.47,2.42-2.91,5-4.11,7.11.59.18.76-.26,1.37-.61c1.16-.4,1.74-.61,2.63.89-.74.89-.93,2.36.29,2.59-.74,2.63-3.63,1.74-3.97.12-.52-.12-.55-.08-.77-.27-.07.67-1.04,1.08-1.77.4-.54.85-1.82.54-2.26-.15-.58.91-1.82,1.29-3.09.7-.26,1.12-1.32,1.96-2.35,1.99-1.03.02-2.14-.35-2.05-1.23.73-.61.34-1.83.12-2.02.66-.1,1.2-.34,1.62-.5c2.05.53,5.28.03,5.73-.72-.08,0-.09-.08-.17-.05-1.16.41-2.39.9-5.72.27-1.51,1.1-4.92.86-4.14-1.11.02-.06.03-.19.1-.18c1.42.19,2.38-.77,2.8-1.68c1.73,3,5.19,2.62,7.3,1.78c0-.11.05-.3-.04-.25-.59.12-2.19.84-3.84.42-1.57-.54-2.07-.7-2.97-1.86-.11.02-.52-1.54-.13-1.85.5,1.23,2.62,1.37,2.89-.23.06-.91-.29-1.35-.65-1.73l.08-.01c1.84.89,3.49,2.63,3.96,3.92.42.78,1.55.34,1.95-.41c1.98-3.07,3.42-5.32,4.43-8.67.11-.37.2-.43.28-.8Zm-14.91,7.9c.4-.33.93-.31,1.49-.18-.22.32-.24.64-.05.96-.42-.54-1.03-.68-1.44-.78Zm19.61,8.49c-.35.21-.74.26-1.22.23c1.67-1.17,1.35-2.51.46-2.78-.3-.09-.57-.18-.94.03-1.07-.55-.8-1.4-.26-2.15c3.08-1.05,4.29,3.18,1.96,4.67ZM44.16,76.6c.48.16,1.27.99,1.11,2.05-.47,1.6-2.33.52-2.11-.13-1.93-.85-2.8.15-3.2.78-.77-2.32,2.56-3.29,4.2-2.7ZM41.08,89.91c-1.92-2.01-1.08-3.94.76-3.56.36-.38.62-.63.13-1.59-.81.18-1.51.01-1.91,0-2.23.96-1.96,5.4,1.02,5.15ZM58.73,75.22c1.5-2.21.79-5.39-2.97-4.64.75-3.73-.33-9.04.14-10.86c1.09-3.67,2.67-3.95,4.26-4.19c2.7-.13,3.84,1.95,4.08,4.84.28,3.66-.79,8.6-1.96,11.88-.54,1.5-1.81,3-3.55,2.97ZM32.26,68.03c-1.29,2.42-2.94,4.22-4.6,4.48c1.42-10.23,3.9-20.41,6.66-26.99h-.05c.34-.19.66-.56.93-1.07.6,1.27,1.28,1.74,1.91,1.6C36,49.32,32.52,59.34,32.25,65.4c-.01.88,0,1.76.01,2.63Zm-6.85-8.16c-1.01,1.53-3.48,4.26-4.59,4.28.84-3.39,3.54-9.23,5.38-16.5l2.28-3.64c.54,1.08,1.21,1.61,1.86,1.66-.94,2.8-2.42,7.13-3.95,11.74-.21.61-.28,1.09-.98,2.46Zm-4.8,4.82c1.3.33,3.24-1.64,4.79-4.17-1.52,4.27-2.75,8.18-3.76,10.11-1,.97-2.5,1.99-3.88,1.12.99-2.52,1.96-4.82,2.85-7.06ZM54.55,44.02c-.84,1.43-1.9,1.82-3.04,1.32.38-.42.7-1.04.91-1.79.71.25,1.43.4,2.13.47Zm-2.38-.56c-.98,1.81-2.27,2.12-3.65,1.23.53-.58.96-1.51,1.21-2.67.78.64,1.6,1.11,2.44,1.44Zm-3.69,1.27c.63,1,1.34,1.36,1.99,1.24-1.15,2.17-3.27,5.53-3.26,7.99-.69.57-1.45.83-2.28.56-.49-2.11,2.39-8,3.13-9.44.15-.09.28-.21.42-.35Zm2.5,1.05c.1-.06.21-.13.3-.22.59.71,1.23.93,1.82.76-.65,1.93-2.36,4.26-3.02,6.81-.47.73-1.13,1.18-2.32.77-.17-2.66,1.64-5.25,3.22-8.12ZM44.24,33.92c-1.18,2.31-2.56,2.73-3.74,1.14.59-.77,1.1-1.96,1.44-3.46.91.65,1.64,1.44,2.3,2.32Zm-5.31-3.76c-1.48,6.17-4.21,6.02-5.79,1.36.18-.13.36-.26.55-.39c1.27-.77,3.03-1.47,4.79-1.1h.01l.03.01v0l.04.01.02.01v0h.02v0l.07.02v0h.01.02l.02.01.02.01.04.01h.01l.03.01.02.01h.01.01l.02.01.02.01.02.01h.01Zm-5.84,1.4c.16,1.06.75,3.05,1.31,3.32-1.19,2.93-2.91,2.34-4.11-.73.81-.94,1.74-1.81,2.8-2.59Zm-2.85,2.65c.24,1.39.92,2.76,1.58,2.99.11.1.12.11.21.15-.02.06-.03.15-.06.24-.78,2.66-2.5,2.77-4.21.38.65-1.32,1.47-2.59,2.48-3.76Zm-2.5,3.8c.73,1.92,2.2,2.51,2.99,2.38-1.61,1.88-3.31,1.98-4.84.72.58-.96,1.38-2.14,1.85-3.1Zm-1.85,3.11c.78,1.72,2.1,2.02,3.29,1.37-1.8,2.25-3.26,4.42-3.66,4.73-1.72,1.34-5.94,1.16-6.6-.24c1.13-.1,3.8-1.12,5.27-3.29.52-.79,1.11-1.6,1.7-2.57Zm3.87.94l.04-.04v0c.94.93,1.96.68,2.7-.34.06.05.11.1.17.14-.79,3.31-2.41,3.89-4.14,2.11l1.31-1.82-.08-.05Zm1,3.58c.54-.13,1.03-.59,1.38-1.34.56,1.07,1.18,1.47,1.76,1.36-3.18,6.89-5.71,17.87-8.35,35.67-1.17,5.42-1.94,22.56-8.84,19.58c1.38-3.6,2.75-10.29,3.55-15.02.35-.47.7-1.02,1.04-2.05c2.69-7.43,5.08-22.61,6.9-30.48-.38.88-1.12,3.41-1.52,4.52-1.53,8.88-4.43,21.82-6,25.65-.85,2.06-2.95,4.05-5.3,3.41c6.22-11.37,12.77-34.11,15.38-41.3Zm6.72.26c.31-.19.6-.52.86-.97.8,1.1,1.65,1.31,2.34.91-1.37,4.53-2.6,9.35-3.09,16.74-.68,3.44-3.14,3.96-4.66,4.86-.05-6.65,2.47-14.75,4.55-21.54Zm3.73-.51c.11-.15.23-.31.33-.49.71,1.27,1.52,1.48,2.41,1.21-1.41,3.81-3.06,7.8-2.97,12.06.03,1.64-.32,2.71-2.74,3.18-.02-.05-.07-.07-.11-.1.53-6.29,1.6-11.22,2.99-15.62.13-.39.08-.23.09-.24Zm3.56-.07c.2-.35.28-.49.51-1c.68,1.1,1.47,1.39,2.17,1.22-.9,2.05-3.11,6.12-3.13,8.54-.01,1.45-1.84,3.26-2.82,3.55-.31-2.7,2.08-9.92,3.27-12.31Zm4.79-3.44c-.99,2.83-2.55,3.68-4.22,2.29.09-.31.25-.96.3-1.32c1.12.57,2.26-.37,2.8-2.1.36.42.73.79,1.12,1.13Zm-1.33-1.39c-.86,1.57-1.95,2-3.13,1.49.42-.68.73-1.63.85-2.75.28-.31.54-.7.78-1.17.33.6.68,1.21,1.05,1.83.14.21.29.41.45.6Zm-1.79-2.94c-1.29,2.16-2.76,2.21-3.97.04.19-.32.38-.68.54-1.08v0c.56-.39,1.09-1.14,1.51-2.18.68.97,1.29,2.07,1.92,3.22ZM34.71,35.28c.38.41.79.58,1.2.54-1.1,2.6-2.38,3.29-3.51,1.99l.04-.29v-.01c.8.13,1.63-.71,2.27-2.23Zm1.61.44c.35-.15.69-.45,1.02-.88.5.85,1.07,1.23,1.65,1.2-1.02,1.72-2.16,2.12-3.19,1.13.19-.42.36-.91.52-1.45Zm3.25.16c.27-.14.54-.36.79-.65.58,1.2,1.28,1.67,1.98,1.56-.84,1.32-1.77,1.85-2.65,1.56v-.01.01c-.31-.1-.61-.3-.9-.6-.01.01-.09-.06-.18-.14.34-.43.67-1.02.96-1.73Zm-6.75,6.04c1,.66,2.04.36,2.81-.56.09.11.17.21.26.3-.85,3.12-2.07,3.98-3.66,2.45.25-.6.46-1.34.59-2.19Zm3.19-.14c.97.87,2.05.45,2.79-.71.13.21.27.4.4.55-1.01,3.48-2.44,4.34-3.97,2.75.36-.66.63-1.55.78-2.59Zm3.25-.1c.86.94,1.82.86,2.55.09.11.19.22.35.34.5-.74,2.87-2.1,3.67-3.78,2.62.42-.78.75-1.89.89-3.21Zm2.94.65c.92,1.1,1.95.92,2.71-.07.22.25.44.44.66.56-.12.31-.25.6-.38.85l-.03-.03.02.04c-.98,1.88-2.27,2.17-3.64,1.2.37-.65.61-1.53.66-2.55Zm3.74-3.09c-.4,1.16-.88,1.95-1.42,2.42-.02-.01-.03-.02-.05-.03.01.02.02.03.03.05-.79.88-1.69.78-2.63.02.55-.62.97-1.62,1.11-2.87.89,1.46,2,1.46,2.96.41Zm-2.97-.42c-1.02,2.7-2.52,3.28-4.14,2.21.34-.54.6-1.23.76-2.02.96.53,2.01-.03,2.84-1.37.17.47.35.86.54,1.18Zm-3.51.11c-.97,2.27-2.3,2.94-3.73,2.3.51-.67.9-1.63,1.04-2.77.56.15,1.14-.1,1.67-.67.07.07.15.14.12.16.28.45.58.78.9.98Zm-2.72-.48c-1.01,2.53-2.41,3.58-3.95,2.8.29-.53.53-1.2.67-1.97.75.18,1.54-.47,2.17-1.74.35.5.72.8,1.11.91Zm-3.44.78c-.83,2.06-1.91,3.01-3.09,2.38.31-.37.59-.81.82-1.31.59-.26,1.04-.97,1.28-2.02.31.5.65.81.99.95Zm-3.18,2.48c-.02.02-.03.04-.05.06l.05-.06Zm-.22.23c-.02.01-.03.03-.05.04l.05-.04ZM61.11,91.09c-.75.93-1.54,1.86-2.37,2.74-.39.41-.78.81-1.18,1.2-.42.39-.85.76-1.29,1.11-.53.42-1.06.85-1.61,1.26-.54.4-1.09.79-1.64,1.12v0c-.14.08-.28.15-.42.21s-.29.1-.43.13c-.73.14-1.46-.11-2.01-.82v0c-.08-.1-.14-.21-.2-.32-.23-.46-.27-.99-.16-1.48.04-.16.09-.31.15-.46.11-.17.25-.32.41-.45.08-.06.17-.12.27-.17.94-.49,1.81-.9,2.62-1.29c1.71-.82,3.15-1.51,4.48-2.46.71-.46,1.39-.99,2.05-1.63.14-.02.29-.01.45.03s.31.11.45.2c.13.09.25.21.33.35.11.2.16.45.1.73Zm1.38.24c.17.14.27.28.33.43.05.14.05.29.02.45-.21.45-.44.91-.7,1.39-.25.48-.52.96-.81,1.44-.15.26-.31.52-.47.78-.2.31-.4.63-.61.94-.47.71-.97,1.41-1.49,2.11-.84,1.04-1.72,2.02-2.62,2.85v0c-.09.08-.18.16-.28.23s-.2.13-.31.18c-.54.26-1.21.28-1.98-.21-.12-.11-.23-.23-.31-.36-.28-.41-.39-.89-.36-1.34.01-.17.05-.35.1-.51.08-.17.17-.32.29-.45.09-.1.19-.19.3-.27v0c.42-.3.84-.62,1.25-.94s.81-.65,1.21-.99c.62-.53,1.22-1.07,1.8-1.64.79-.73,1.55-1.49,2.28-2.28.23-.25,1.25-1.6,1.61-1.89.21-.05.46-.07.75.08Zm1.9.79c.16.13.25.27.29.42.04.16.05.33.04.51-.05.15-.1.29-.15.44-.96,2.51-2.01,4.99-3.01,7.48-.17.4-.35.79-.52,1.18-.02.06-.05.11-.07.17-.24.49-.5.94-.66,1.29-.03.06-.05.11-.08.16-.23.43-.83.78-1.22.92-.38.14-.79.16-1.27-.06-.06-.03-.11-.05-.15-.08v0c-.1-.06-.2-.13-.28-.2-.63-.42-.78-1.12-.63-1.8.08-.28.21-.55.38-.8.05-.09.11-.18.17-.26.6-.75,1.18-1.49,1.74-2.24.06-.07.11-.15.17-.22.8-1,1.56-2.06,2.25-3.13.78-1.19,1.49-2.4,2.11-3.66.09-.07.22-.15.36-.2.17-.03.34-.01.53.08Zm1.69.57c.48.18.53.47.59.78l.01.06c-.06.4-.11.8-.17,1.19l-1.05,6.1c-.26,1.2-.56,2.37-.91,3.53v0v0v0l-.01.03c-.05.13-.1.26-.16.38-.07.15-.16.28-.25.41-1.15,1.38-3.42.73-3.18-1.46.01-.04.03-.08.04-.12v0v0c.08-.22.16-.43.25-.65.26-.64.52-1.28.79-1.92c1.09-2.56,2.23-5.13,3.14-7.4.07-.17.14-.34.2-.51.07-.11.18-.24.33-.33.07-.04.15-.08.24-.1.04-.01.09,0,.14.01Zm4.35.46c.62.23.6.94.73,1.62.23,1.44.46,2.87.74,4.29.12.6.24,1.19.38,1.79l.63,3.41.04.23v0c.01.07.02.13.03.2v.02c.09.98-.36,1.68-1.39,1.87v0c-.05.01-.11.02-.17.03-.08.01-.14.01-.2.01-.98.02-1.66-.59-1.76-1.55c0-.06-.01-.12-.01-.17c0-1.85,0-3.64-.01-5.43-.01-1.72-.01-3.43-.01-5.2v-.18c.08-.28.25-.58.5-.77.05-.04.1-.07.16-.1.05-.02.09-.04.14-.06.07-.02.14-.02.2-.01Zm-2.32-.03c.02.01.04.02.06.03.06.03.11.06.16.1.25.19.42.5.49.77v.18c-.01,1.76-.03,3.48-.04,5.2-.02,1.79-.03,3.59-.04,5.43c0,.06,0,.13-.01.2-.07.84-.57,1.41-1.33,1.56-.14.02-.28.04-.43.03-.06,0-.13-.01-.2-.01-.06-.01-.11-.02-.17-.03v0c-1.07-.21-1.51-.95-1.37-2c.01-.06.02-.13.03-.2l.67-3.52c.14-.59.27-1.19.39-1.78.29-1.42.54-2.85.77-4.28.15-.77.11-1.57,1.02-1.68Zm11.25.63c.84.86,1.71,1.68,2.62,2.43.52.43,1.06.86,1.6,1.27s1.08.8,1.63,1.13v0c.14.09.28.16.42.21.14.06.29.1.43.13.72.14,1.46-.1,2.01-.8v0c.08-.1.14-.21.2-.32.23-.46.27-.99.17-1.48-.02-.08-.04-.17-.07-.25-.12-.23-.29-.43-.49-.59-.08-.07-.17-.12-.27-.17-.94-.49-1.8-.91-2.61-1.31-2.17-1.06-3.93-1.92-5.55-3.35-.29-.24-.58-.49-.86-.76-.16-.05-.35-.04-.54.01-.16.04-.31.11-.45.2-.13.09-.25.21-.33.34-.12.19-.17.43-.11.71.7.9,1.43,1.77,2.2,2.6Zm-.99,3.66c.35.49.71.97,1.08,1.46.84,1.06,1.72,2.04,2.62,2.89v0c.09.08.18.16.28.23s.2.13.31.18c.54.27,1.21.29,1.98-.2.12-.11.23-.23.31-.36.28-.41.4-.88.37-1.34-.01-.1-.02-.21-.04-.31-.08-.21-.2-.41-.34-.58-.09-.1-.19-.19-.29-.27v0c-.42-.31-.84-.62-1.25-.95-.4-.32-.8-.65-1.2-1-1.12-.97-2.18-2-3.19-3.09-.29-.3-.58-.61-.87-.92-.21-.23-1.06-1.37-1.49-1.8-.23-.07-.51-.13-.86.05-.17.14-.28.28-.33.42s-.06.29-.02.45c.21.45.44.91.69,1.39s.52.97.8,1.45c.15.26.31.52.47.78.2.32.4.63.6.94.12.2.24.39.37.58Zm-1.72,3.65c.15.33.3.66.45.99.28.61.6,1.15.79,1.58.03.06.05.11.08.16.23.44.83.79,1.21.93s.78.17,1.27-.05c.06-.02.11-.05.15-.07v0c.1-.06.2-.12.28-.2.56-.37.75-.96.68-1.57-.07-.33-.22-.66-.41-.96-.05-.09-.11-.18-.17-.26-.59-.75-1.17-1.5-1.72-2.25-.42-.55-.82-1.11-1.21-1.68-.41-.58-.81-1.17-1.19-1.76-.78-1.19-1.48-2.41-2.09-3.67-.02-.01-.04-.03-.06-.04-.05-.02-.1-.04-.15-.06-.19-.06-.42-.06-.67.05-.16.13-.25.27-.29.42-.05.16-.05.33-.05.51.05.15.1.3.15.44.93,2.5,1.97,4.98,2.95,7.49v0Zm-3.26,2.43c.08.27.16.54.25.8v0v0v0c.05.16.11.31.18.45.07.15.16.28.25.41c1.13,1.36,3.35.77,3.19-1.35-.01-.04-.03-.09-.05-.14v0v0c-.26-.7-.53-1.41-.8-2.11-.07-.18-.15-.36-.22-.54-1.07-2.56-2.2-5.14-3.09-7.42-.07-.17-.14-.34-.2-.51-.07-.11-.18-.24-.33-.33-.11-.03-.24-.04-.39-.02-.48.17-.53.46-.59.77l-.01.06c.05.4.11.8.16,1.2l1.01,6.11c.2.89.4,1.76.64,2.62ZM96.16,80.82c1.08,1.39,2.2,1.56,2.73.9c1.66-.38,2.84.96,2.75,2.88c2.16-6.27-5.8-5.45-5.48-3.78ZM75.7,80.19c-.09.09-.17.18-.24.25.41,1.32.56,2.51.95,3.9.19-1.47,1.62-2.53,3.48-2.12.79-1.79,2.55-1.45,3.08-.89-.88-1.8-1.97-3.22-3.16-5.42-1.6.14-2.81-1.21-3.42-1.65.24,2.21.53,4.16-.69,5.93ZM76.8,24.1c.17-.78.44-1.58,1.21-2.22.74.51,1.17,1.28,1.57,2.17-.8-.13-1.79-.13-2.78.05Zm4.39,2.56c.93-.05,1.72.66,1.76,1.59.05.93-.66,1.72-1.59,1.76-.93.05-1.72-.66-1.76-1.59-.05-.92.66-1.71,1.59-1.76Zm.04.73c.53-.03.97.38,1,.9.03.53-.38.98-.9,1-.53.03-.97-.38-1-.9-.03-.53.37-.97.9-1Zm.02.47c.26-.01.49.19.5.45s-.19.49-.45.5-.49-.19-.5-.45.19-.48.45-.5Zm-.04-.88c.75-.04,1.39.53,1.43,1.28s-.54,1.39-1.28,1.43c-.75.04-1.39-.54-1.43-1.28-.05-.75.53-1.39,1.28-1.43Zm-9.29-1.79c0,.8.39,1.68,1.15,2.11.26-.07.54-.49.7-.62.27-.21.37-.49.52-.79-.68-.68-1.36-.67-2.37-.7Zm8.73,11.4c.2-1.23.89-3.25,2.61-2.86-.3,1.99-.68,2.55-2.61,2.86Zm7.71-3.57c-.05-2.39-1.68-3.64-3.7-3.11.45-.77.78-1.05,1.01-2.04c2.62.71,3.64,2.38,3.14,4.27-.06.23-.21.66-.45.88Zm-4.65-.49c.09-.76.18-1.7.72-1.95c1.61-.98,3.72.65,3.4,2.52-1.01-1.72-2.61-2.21-4.12-.57ZM82.67,71.16c-3.64-.49-3.68,2.36-2.5,4.12c1.45,2.43,2.87,5.02,4.06,7.13-.6.18-.76-.26-1.37-.62-1.16-.4-1.74-.62-2.63.88.73.89.91,2.37-.3,2.59.72,2.64,3.62,1.77,3.97.15.52-.12.55-.08.77-.26.06.67,1.03,1.08,1.77.41.54.86,1.82.55,2.26-.13.57.91,1.81,1.3,3.08.72.25,1.12,1.31,1.97,2.33,2c1.03.03,2.14-.33,2.06-1.22-.73-.62-.33-1.83-.11-2.02-.66-.1-1.19-.35-1.61-.51-2.05.52-5.28,0-5.72-.75.08,0,.09-.08.17-.05c1.16.42,2.38.92,5.72.31c1.51,1.11,4.92.89,4.14-1.09-.02-.06-.03-.19-.1-.18-1.42.18-2.37-.79-2.79-1.69-1.75,2.98-5.21,2.59-7.31,1.73.01-.11-.05-.3.04-.25.59.13,2.18.85,3.83.45c1.57-.53,2.08-.69,2.98-1.84.11.02.53-1.54.14-1.84-.51,1.22-2.63,1.36-2.89-.25-.06-.91.3-1.35.66-1.72l-.06-.03c-1.85.88-3.51,2.61-3.98,3.9-.42.78-1.55.33-1.95-.43-1.96-3.09-3.39-5.34-4.38-8.7-.11-.38-.2-.44-.28-.81Zm14.86,7.99c-.4-.33-.93-.32-1.49-.18.22.32.23.65.05.96.42-.54,1.03-.68,1.44-.78ZM77.87,87.52c.35.21.74.27,1.22.24-1.66-1.18-1.33-2.52-.45-2.78.3-.09.58-.17.94.04c1.07-.55.81-1.39.28-2.15-3.07-1.08-4.31,3.14-1.99,4.65ZM94.2,76.79c-.49.15-1.27.98-1.13,2.04.46,1.6,2.32.54,2.12-.12c1.94-.83,2.8.16,3.19.79.8-2.3-2.53-3.29-4.18-2.71Zm3.01,13.33c1.93-2,1.1-3.94-.74-3.57-.35-.38-.61-.64-.12-1.59.81.19,1.51.02,1.91.01c2.22.98,1.92,5.41-1.05,5.15ZM79.65,75.32c-1.49-2.22-.76-5.4,3-4.62-.72-3.73.39-9.04-.07-10.86-1.07-3.68-2.65-3.97-4.23-4.21-2.69-.15-3.85,1.93-4.11,4.81-.3,3.66.74,8.6,1.89,11.9.51,1.49,1.77,3,3.52,2.98Zm26.51-7.03c1.28,2.43,2.91,4.23,4.57,4.51-1.35-10.24-3.78-20.44-6.5-27.03h.05c-.34-.2-.65-.57-.93-1.08-.6,1.26-1.29,1.73-1.92,1.59c1.09,3.28,4.51,13.32,4.74,19.38.02.89,0,1.76-.01,2.63Zm6.9-8.11c1,1.53,3.45,4.29,4.56,4.31-.82-3.39-3.48-9.25-5.28-16.54l-2.25-3.65c-.54,1.08-1.22,1.6-1.87,1.64.92,2.81,2.38,7.14,3.88,11.76.2.62.27,1.1.96,2.48Zm4.77,4.85c-1.3.32-3.23-1.66-4.77-4.2c1.49,4.28,2.7,8.2,3.7,10.13c1,.98,2.49,2.01,3.87,1.15-.97-2.53-1.92-4.84-2.8-7.08ZM84.02,44.14c.83,1.44,1.89,1.83,3.03,1.34-.38-.43-.7-1.04-.9-1.79-.71.25-1.43.39-2.13.45Zm2.38-.54c.97,1.81,2.26,2.13,3.64,1.25-.52-.59-.95-1.51-1.19-2.67-.78.63-1.61,1.1-2.45,1.42Zm3.69,1.29c-.63.99-1.34,1.35-2,1.23c1.14,2.18,3.24,5.55,3.21,8.01.69.58,1.45.84,2.27.57.51-2.11-2.34-8.01-3.07-9.46-.14-.09-.28-.21-.41-.35Zm-2.52,1.04c-.1-.06-.2-.13-.3-.22-.59.71-1.24.92-1.82.75.64,1.93,2.33,4.28,2.98,6.83.46.73,1.12,1.19,2.31.78.19-2.66-1.61-5.26-3.17-8.14Zm6.82-11.82c1.17,2.32,2.54,2.74,3.73,1.16-.59-.77-1.09-1.97-1.42-3.47-.91.65-1.65,1.43-2.31,2.31Zm2.49-2.43c1.23,3.55,2.83,4.65,4.23,3.14-.58-.9-1.17-2.3-1.56-3.97l-.01-.03v-.01-.01l-.01-.02v0v0l-.01-.04-.01-.03v0v0l-.01-.07v0-.01v0l-.02-.08c-.01-.03-.01-.06,0-.08l-.02.01v0v0v0h-.01v0h-.01v0v0v0v0v0v0v0v0h-.02v0v0v0v0h-.01v0l-.06.02v0v0c-.98.32-1.77.71-2.47,1.18Zm2.84-1.3v0v.01c1.45,6.17,4.17,6.03,5.78,1.38-.18-.13-.36-.26-.54-.39-1.2-.74-2.85-1.42-4.51-1.17h-.01c-.06.01-.12.02-.18.03h-.01l-.08.02v0l-.08.02h-.02-.02-.01l-.03.01v0h-.02-.01-.01-.02l-.02.01h-.02l-.03.01-.1.03-.02.01-.02.01-.02.02Zm5.83,1.44c-.17,1.06-.77,3.04-1.33,3.31c1.18,2.93,2.89,2.35,4.11-.71-.8-.94-1.73-1.81-2.78-2.6Zm2.84,2.67c-.25,1.39-.94,2.75-1.6,2.98-.11.1-.12.11-.21.15.02.06.03.15.06.24.76,2.66,2.48,2.78,4.21.4-.64-1.32-1.46-2.6-2.46-3.77Zm2.48,3.82c-.74,1.92-2.21,2.5-3.01,2.36c1.6,1.89,3.3,2,4.83.75-.57-.97-1.37-2.16-1.82-3.11Zm1.83,3.11c-.79,1.71-2.12,2.01-3.29,1.35c1.79,2.27,3.23,4.44,3.63,4.75c1.71,1.35,5.93,1.2,6.6-.2-1.13-.1-3.79-1.14-5.25-3.32-.53-.79-1.11-1.6-1.69-2.58Zm-3.89.92l-.04-.04v0c-.94.93-1.96.67-2.7-.36-.06.05-.11.09-.17.14.77,3.31,2.38,3.9,4.13,2.14l-1.3-1.82.08-.06Zm-1.02,3.57c-.54-.13-1.03-.6-1.37-1.35-.56,1.06-1.19,1.46-1.77,1.35c3.14,6.91,5.6,17.91,8.13,35.72c1.13,5.43,1.8,22.57,8.72,19.63-1.36-3.61-2.68-10.31-3.46-15.04-.35-.48-.69-1.03-1.03-2.06-2.64-7.44-4.94-22.64-6.72-30.52.38.89,1.1,3.42,1.49,4.53c1.48,8.89,4.29,21.84,5.85,25.69.84,2.07,2.93,4.07,5.28,3.45-6.13-11.41-12.55-34.19-15.12-41.4Zm-6.72.22c-.31-.19-.6-.52-.85-.97-.81,1.1-1.66,1.3-2.35.9c1.34,4.54,2.54,9.36,2.99,16.76.66,3.44,3.11,3.98,4.63,4.89.1-6.66-2.37-14.78-4.42-21.58Zm-3.72-.53c-.11-.15-.23-.31-.33-.49-.71,1.26-1.53,1.47-2.42,1.19c1.39,3.82,3.01,7.82,2.9,12.07-.04,1.64.3,2.71,2.72,3.2.02-.05.07-.07.11-.1-.49-6.29-1.53-11.23-2.89-15.64-.13-.38-.08-.22-.09-.23Zm-3.57-.09c-.19-.36-.28-.49-.51-1-.68,1.09-1.48,1.38-2.18,1.21.88,2.06,3.07,6.14,3.08,8.56c0,1.45,1.82,3.28,2.8,3.57.34-2.71-2-9.94-3.19-12.34Zm-4.76-3.48c.98,2.83,2.53,3.7,4.21,2.32-.09-.31-.25-.96-.29-1.32-1.12.56-2.26-.38-2.79-2.12-.36.42-.74.8-1.13,1.12Zm1.34-1.37c.85,1.58,1.94,2.01,3.12,1.51-.42-.68-.72-1.63-.83-2.76-.27-.31-.53-.7-.77-1.18-.34.6-.68,1.21-1.06,1.82-.15.22-.3.42-.46.61Zm1.81-2.94c1.28,2.17,2.75,2.23,3.97.06-.19-.32-.37-.68-.54-1.09-.56-.39-1.08-1.15-1.5-2.19-.68.99-1.29,2.08-1.93,3.22Zm11.74-2.19c-.38.41-.8.58-1.21.53c1.08,2.6,2.36,3.31,3.5,2.02l-.04-.3v-.01c-.79.12-1.62-.71-2.25-2.24Zm-1.61.43c-.35-.15-.69-.45-1.01-.88-.5.85-1.08,1.22-1.66,1.19c1.01,1.73,2.15,2.13,3.18,1.15-.19-.43-.36-.92-.51-1.46Zm-3.25.14c-.27-.14-.53-.36-.79-.66-.58,1.19-1.29,1.66-1.99,1.55.84,1.32,1.75,1.86,2.64,1.57v-.01.01c.31-.1.61-.3.91-.59.01.01.09-.06.19-.13-.35-.44-.68-1.02-.96-1.74Zm6.71,6.08c-1,.65-2.04.35-2.81-.58-.09.11-.17.21-.26.3.83,3.13,2.05,3.99,3.65,2.47-.25-.6-.45-1.34-.58-2.19Zm-3.19-.16c-.98.87-2.05.44-2.79-.73-.13.21-.27.39-.41.55.99,3.48,2.42,4.35,3.95,2.78-.34-.66-.6-1.55-.75-2.6Zm-3.25-.12c-.87.94-1.82.84-2.55.07-.11.19-.23.35-.34.49.72,2.88,2.08,3.68,3.77,2.65-.42-.78-.74-1.89-.88-3.21Zm-2.95.63c-.93,1.1-1.96.91-2.71-.09-.21.25-.44.43-.66.56.12.31.24.6.37.85l.03-.03-.02.04c.97,1.88,2.25,2.18,3.63,1.22-.35-.64-.59-1.52-.64-2.55Zm-3.71-3.11c.4,1.16.87,1.96,1.4,2.43.02-.01.03-.02.05-.03-.01.02-.02.03-.03.05.79.89,1.69.79,2.63.04-.55-.62-.96-1.63-1.1-2.87-.89,1.45-2,1.44-2.95.38Zm2.97-.4c1,2.71,2.5,3.3,4.13,2.24-.33-.54-.59-1.23-.74-2.03-.96.52-2.01-.04-2.83-1.38-.18.46-.37.85-.56,1.17Zm3.51.13c.95,2.28,2.28,2.95,3.72,2.33-.51-.67-.89-1.64-1.03-2.78-.56.14-1.14-.11-1.67-.68-.07.07-.15.14-.13.16-.27.45-.57.77-.89.97Zm2.72-.46c1,2.53,2.39,3.6,3.94,2.82-.29-.53-.52-1.21-.66-1.98-.75.17-1.53-.48-2.16-1.76-.35.51-.73.81-1.12.92Zm3.44.79c.82,2.07,1.89,3.02,3.07,2.4-.31-.37-.59-.81-.81-1.32-.59-.27-1.04-.98-1.27-2.03-.31.51-.65.82-.99.95Zm3.16,2.51c.02.02.03.04.05.05l-.05-.05Zm.22.23c.02.01.03.03.05.04l-.05-.04ZM78.11,90.66c-.12-.09-.21.04-.13.14c2.27,2.61,5.02,4.98,8.35,7.09.4.19.78.15,1.04-.25.13-.44-.02-.79-.26-.94-3.14-1.48-6.35-3.33-9-6.04Zm-1.67,1.52c-.09-.12-.21-.01-.16.11c1.75,3.06,4.02,5.98,6.65,8.78.35.27.63.32.97-.01.23-.4.13-.73-.07-.92-2.73-2.26-5.42-4.83-7.39-7.96Zm-1.82.79c-.07-.13-.21-.05-.18.07.93,3.24,2.49,6.58,4.59,10.02.28.34.54.45.95.2.31-.34.28-.68.13-.91-2.11-2.74-4.16-5.83-5.49-9.38Zm-4.14,1.15c-.01-.14-.16-.13-.18-.01-.13,3.28-.09,6.86.12,10.7.12.42.3.61.77.55.41-.18.52-.49.48-.76-.54-3.08-.97-6.52-1.19-10.48Zm-1.39-2.1h-.01v0v0v0v0v0v0v0v0v0h-.01v0h-.01v0h-.01v0v0v0v0v0v0v0v0v0h-.01v0v0v0v0v0v0v0v0v0v0v0v0v0v0v0v0v0v0v0v0v0v0v0v0v0v0v0h-.01v0v0v0v0v0v0v0v0h-.01v0h-.01v0h-.01v0v0v0v0v0v0v0v0v0v0v0h-.01c-.02,0-.04,0-.07,0-.59-.04-1.06-.58-1.26-1.16-.31.47-.86.83-1.42.77-.67-.07-1.19-.87-1.31-1.49-1.48,1.44-3.06-.37-2.65-1.41v0l1.86-7.5c.07-.25.1-.39.31-.61.11-.12.25-.19.39-.24.23-.09.46-.1.69-.05.22.06.43.18.59.37.11.12.19.27.25.44.14-.16.3-.28.47-.35.19-.08.39-.1.57-.07.19.03.37.12.52.26.1.1.18.22.25.37.11-.16.25-.29.39-.39.17-.11.36-.17.56-.19v0v0v0c.02,0,.03,0,.05,0v0h.01v0v0h.01v0v0c.21.01.42.08.61.2.14.1.27.23.38.4.07-.15.16-.27.26-.36.15-.14.33-.22.52-.25s.38,0,.57.09c.17.08.33.2.46.36.06-.17.15-.32.26-.44.17-.18.38-.3.6-.35s.46-.03.68.06c.14.06.28.13.38.25.2.23.23.37.29.62l1.67,7.54v0c.12.66-.28,1.55-1.08,1.78-.59.17-1.24.08-1.6-.43-.09.56-.52,1.32-1.24,1.42-.56.04-1.07-.29-1.36-.77-.21.57-.79,1.1-1.38,1.12-.08.01-.1.01-.13.01ZM39.17,30.32l-.02.08v0c-.4,1.76-1.03,3.25-1.64,4.18c1.39,1.52,2.99.43,4.25-3.12-.69-.47-1.48-.87-2.4-1.17v0h-.01v0v0v0v0v0v0v0v0v0v0h-.01v0l-.03-.01v0v0v0v0h-.01v0v0v0v0v0v0h-.01v0v0v0h-.01v0l-.05-.02c-.05.01-.05.03-.06.06Zm59.33-.41c-7.87-6.84-18.12-10.98-29.31-10.98v0v0h-.01v0c-11.06,0-21.21,4.06-29.04,10.76c2.36.9,4.42,2.92,5.65,5.29c1.93,4.12,5.98,11.92,15.02,6.26.03-.69.34-1.39,1.06-1.66l-.01-.32c-.05-.83-.68-.97-1.58-1.14-.33-.05-.58-.02-.92-.1-.93-.23-.84-.62-1.39-.81-2.91-.42-3.21-2.82-3.23-4.19-.66-1.7-3.57-1.16-3.77,1.12-3.3-2.12-1.67-6.23,1.95-7.14.27-2.02,2.46-2.02,3.57-1.9.44-.3.86-.57,1.53-.83.6-1.43,1.72-2.88,2.85-3.34.96.77,1.6,1.99,1.87,3.32.07.02.14.04.2.06c1.6-1.07,3.77-1.32,5.55-.45.35,1.69-.5,4.06-1.65,5.37c1,1.14,1.99,3.32,2.47,4.38.49-1.08,1.49-3.21,2.48-4.33-1.14-1.32-1.98-3.69-1.62-5.38c1.78-.86,3.96-.6,5.55.48.07-.02.14-.04.2-.06.27-1.32.93-2.54,1.89-3.3c1.13.47,2.25,1.92,2.83,3.36.67.27,1.09.54,1.52.84c1.11-.11,3.3-.09,3.56,1.93c3.61.94,5.21,5.05,1.9,7.15-.19-2.28-3.1-2.84-3.76-1.14-.03,1.37-.34,3.77-3.25,4.17-.55.19-.46.57-1.4.8-.33.08-.58.05-.92.1-.9.17-1.53.31-1.59,1.13l-.01.32c.72.28,1.03.98,1.05,1.67c9,5.72,13.1-2.06,15.05-6.17c1.28-2.38,3.35-4.38,5.71-5.27Zm12.2,50.72v0l.09.05.02.01.02.01.05.03.15.08.02.01v0l.02.01.15.08.02.01.02.01h.01l.01.01h.01l.02.01.17.08h.01c.06.03.13.06.19.09l.02.01v0c.07.03.14.06.22.09-.5-3.27-.77-5.54-1.02-7.59-1.66.28-3.91-1.76-4.74-4.21-.06,4.59.76,8.96,4.54,11.21ZM28,81.4c2.27,5.28,5.52,10.05,9.53,14.07c8.12,8.13,19.32,13.17,31.65,13.17v0v0v0v0c12.33,0,23.53-5.04,31.65-13.17c3.95-3.95,7.16-8.63,9.43-13.82-3.85-2.48-5.32-7.45-4.95-13.08-3.05-.95-5.35-3.48-5.12-6.31-2.51-.3-3.33-1.62-3.47-3.6-.69-.43-2.72-1.77-2.86-3.33-1.05.76-2.35-.19-2.53-.69-.97.61-2.81.18-3.41-.88-1.14.01-2.3-.94-2.32-1.25.64.77.38,5.06-1.28,7.79-.42,2.63-1.9,7.4-.99,10.7c1.08,3.9,2.31,5.83,4.3,8.86.55.91.7,1.16,1.45.24c1.24-1.53,3.51-3.83,5.27-3.8c1.13-.65,4.73-.04,4.67,2.61.15.01.29.03.43.06c4.1.75,3.64,5.11,1.89,6.7.23-2.84-1.98-4.13-2.35-3.34.53.59.34,1.74-.26,2.37c2.67,1.09,1.59,7.37-2.57,5.76c2.59-2.02,1.86-3.91.49-3.41.45,2.28-4.54,2.39-5.02-.29-1.11.35-2.2.3-2.94-.6-.67.55-1.5.6-2.25.07-.57.33-1.42.28-1.92-.38-.03-.04-.23.12-.26.08-1.22,2.33-3.82,2.27-4.71-.28-.71-1.03-1.61.13-1.21.81.22.38.67.83,1.3,1.44-.4.2-.84.19-1.21.11-.31-.1-.34-.11-.58-.27.83,1.53,2.05,2.51,3.29,3.39c2.1,1.3,4.31,2.16,6.58,3.29.12.06.23.13.34.21.46.29.76.71.93,1.2.96,1.68-.74,4.76-3.2,3.79-.01-.01-.03-.01-.04-.02.09.2.15.39.19.58.85,2.62-2.43,4.15-3.82,2.35v0l-.04-.04c.05.15.08.3.09.44.47,2.21-2.64,4-4.34,1.76-.05,2.37-3.48,2.96-4.34.46-.02-.05-.05-.1-.07-.15.1,3.12-3.86,3.46-4.3.54-.02.12-.05.23-.08.33c0,.01-.01.03-.01.04s-.01.03-.01.04c-.78,2.42-4.31,1.93-4.19-1.02-.02.05-.05.1-.07.15-.88,2.5-4.3,1.88-4.34-.49-1.75,2.28-4.91.37-4.3-1.9.02-.12.06-.24.1-.37-.03.03-.05.05-.08.08v0v0c-1.44,1.84-4.85.16-3.73-2.58.04-.13.09-.26.16-.39-.03.01-.06.03-.09.04-2.56,1.11-4.24-2.27-3.09-3.96.18-.39.46-.73.85-.97.11-.08.22-.15.34-.21c1.92-.94,3.81-1.72,5.64-2.68c1.68-.98,3.21-2.08,4.28-4.01-.24.16-.27.17-.58.27-.38.09-.81.09-1.21-.11.63-.61,1.08-1.06,1.3-1.44.41-.68-.49-1.85-1.2-.82-.92,2.55-3.51,2.64-4.72.31-.04.04-.23-.12-.26-.09-.5.65-1.35.7-1.92.37-.76.52-1.58.47-2.25-.08-.75.89-1.84.93-2.95.58-.5,2.67-5.48,2.48-5.02.2-1.37-.5-2.11,1.38.47,3.42-4.17,1.58-5.22-4.7-2.54-5.78-.59-.63-.78-1.78-.24-2.37-.37-.79-2.58.49-2.37,3.33-1.74-1.59-2.18-5.96,1.93-6.68.14-.02.28-.04.43-.05-.04-2.65,3.52-3.23,4.65-2.57c1.76-.03,4.05,2.29,5.28,3.83.74.93.9.68,1.45-.23c2.01-3.02,3.25-4.95,4.36-8.84.93-3.29-.52-8.08-.92-10.71-1.64-2.73-1.88-7.03-1.23-7.79-.03.31-1.19,1.26-2.33,1.24-.61,1.06-2.45,1.48-3.42.86-.19.5-1.5,1.44-2.54.67-.14,1.55-2.18,2.88-2.88,3.31-.16,1.97-.98,3.29-3.5,3.57.21,2.83-2.1,5.35-5.16,6.28.3,5.66-1.22,10.64-5.13,13.08Zm-1.54-.62v0l-.02.15c.08-.03.15-.06.22-.09v0l.18-.08.02-.01v0l.03-.01v0l.02-.01.07-.03v0l.02-.01.14-.07.02-.01.02-.01.02-.01.03-.02.02-.01h.01l.09-.05h.01l.02-.01.02-.01.17-.1v0c3.85-2.21,4.7-6.61,4.69-11.21-.84,2.45-3.1,4.47-4.76,4.18-.26,2-.53,4.23-1.04,7.42Zm85.1,1.57c-2.33,5.31-5.64,10.11-9.68,14.16C93.5,104.9,81.94,110.1,69.2,110.1v0v0v0v0c-12.74,0-24.31-5.2-32.68-13.59-4.11-4.12-7.46-9.01-9.8-14.43-.1.04-.2.09-.31.13-.83,4.99-2.32,25.22-10.89,19.14c1.13-1.81,3.15-9.97,3.91-14.59-1.96,1.5-3.89,1.15-5.25.93c1.26-2.61,4.08-7.85,7.3-16.21-.43.9-3.07,2.12-5.19.7c2.44-4.34,6.24-13.93,9.4-24.34-2.75,2.11-7.45,1.09-7.82-1.51c7.9-1.01,8.84-12.93,16.53-16.38c1.33-.69,2.71-.88,4.03-.7c8.18-7.32,18.97-11.77,30.76-11.77v0h.01v0v0c11.92,0,22.81,4.55,31.02,12c1.33-.17,2.71.03,4.05.73c7.67,3.49,8.53,15.42,16.43,16.48-.38,2.6-5.09,3.58-7.83,1.46c3.13,10.44,6.8,20.05,9.25,24.4-2.13,1.4-4.76.17-5.19-.73c3.17,8.37,5.95,13.64,7.2,16.25-1.36.21-3.3.55-5.25-.96.74,4.63,2.71,12.8,3.82,14.62-8.61,6.03-9.97-14.2-10.77-19.2-.12-.08-.25-.13-.37-.18ZM72.69,93.63c-.04-.14-.19-.09-.18.03.57,3.23,1.38,6.72,2.4,10.43.2.38.43.53.86.37.36-.27.4-.59.31-.84-1.17-2.89-2.33-6.16-3.39-9.99Z" transform="translate(-13.18-16.48)" clip-rule="evenodd" fill-rule="evenodd"/><path d="M350.91,77.8l-.75,1.17-.71,1.04-2.13-1.52l1.4-2.18l2.19,1.49Zm-6.36,4.25l-.17-.55l5.89.17c.63.02,1.99-.03,4.06-.17l-.17.61-3.05.41-.08,1.28-.1,5.79c-.02.95-.03,2.85.04,5.68l.14,5.58c.08.02.24.05.48.09.66.11,1.08.18,1.25.2l1.32.15.17.58-5.36-.11-4.6.11.11-.58l1.97-.25l1.11-.18.04-1.6.06-3.08v-3.7-5.64l-.1-4.31c-.2-.07-1.2-.23-3.01-.48Zm-4.14,5.06l-.69-.28c0-.25-.02-.61-.04-1.1-.03-.48-.04-.85-.04-1.09-.33-.8-.85-1.42-1.56-1.89-.71-.46-1.5-.7-2.37-.7-.82,0-1.53.22-2.16.63-.7.46-1.16,1.07-1.21,1.84-.05.95.31,1.7.91,2.24.56.5,1.65,1.29,3.28,2.38c1.56,1.04,2.65,1.97,3.3,2.77.92,1.14,1.38,2.47,1.38,3.98v.83c0,2.45-1.53,4.08-3.85,4.91-1.06.38-2.2.58-3.4.58-1.3,0-2.56-.24-3.78-.71l-.6,3.01-.66.17c.1-.46.23-1.49.36-3.09.17-1.95.21-3.61.21-4.98v-1.24l.6.17c0,.15,0,.27,0,.35c0,.33.02.67.06,1.01.01.07-.05.47.15,1.13.47,1.51,1.65,2.48,3.19,3.01.46.16.92.24,1.38.24.57,0,1.21-.17,1.91-.52c1.38-.68,2.07-1.72,2.07-3.14c0-1.77-1.22-3.34-3.66-4.72-3.4-1.92-5.1-4.23-5.1-6.92c0-1.88.93-3.26,2.78-4.16.93-.45,2.03-.68,3.32-.68c1.12,0,2.37.17,3.72.52.16-.62.33-1.41.5-2.36l.68-.06c-.45,3.57-.68,6.19-.68,7.87Zm-27.17-4.59c-.54-.13-1.55-.29-3.02-.47l-.11-.55l6.24.12c1.54.03,3.27,0,5.22-.07c1.23-.05,1.94-.1,2.15-.15l.09-.49.12-.86.69-.13c-.05.38-.19,1.56-.38,3.52l-.25,2.5.04-.04-.59-.24v-2.01c-.19-.46-1.51-.82-3.96-1.08-1.06-.11-1.92-.17-2.57-.17c0,.93-.01,1.96-.04,3.1l-.13,5.16c3,0,4.99-.16,5.95-.49.14-.42.24-.83.3-1.24l.63-.06-.36,2.25-.45,3.13-.55-.22.06-.92c.01-.21.03-.53.06-.98-.86-.44-2.74-.66-5.64-.66c0,.36-.08.71-.07,1.06l.24,8.44c3.52,0,5.83-.34,6.91-1.03.16-.4.37-1.24.63-2.5l.68-.19-.6,3.7c-.07.4-.17,1.11-.3,2.12-.04.29-.05.56-.05.82l-.61-.11v-1.73c-.12-.05-.63-.08-1.51-.11l-2.78-.1-4.09-.09c-.92-.02-2.61.04-5.06.18l.17-.65c.9,0,1.89-.13,2.96-.38l.17-10.48c.01-.61,0-1.64-.04-3.09l-.15-4.81Zm-25.68,4.37c.24-2.65.36-5.09.36-7.31l.7.11c0,1,.06,1.64.17,1.93l5.81.23c1.17.04,2.25.07,3.23.07c1.77,0,4.21-.07,7.33-.21c1.25-.06,2.1-.09,2.57-.09l.2-.83.21-.98.35-.07.36-.04c-.13.83-.24,1.55-.31,2.14l-.63,5.28c-.24-.11-.46-.17-.63-.17l.06-2.91c-.41-.43-2.02-.79-4.81-1.07-1.1-.11-2.01-.17-2.71-.17l-.07,1.32-.06,2.43-.04,3.45c0,.03.01,1.95.02,5.76.01,1.68.06,3.38.14,5.09c1.31.16,2.54.29,3.69.38l.13.63c-.81-.1-2.51-.14-5.11-.11l-3.48.04-2.64.07.17-.58l3.05-.35c.33-.04.53-.07.6-.09c0-1.41.01-2.58.02-3.51l.07-3.51c.03-1.41.04-2.35.04-2.81c0-1.42-.02-2.73-.04-3.95l-.07-4.26c-3.72,0-6.2.39-7.44,1.18-.12.19-.24.63-.37,1.32l-.27,1.39-.29.1c-.06.02-.17.05-.31.1Zm-5.04-9.09l-.75,1.17-.71,1.04-2.13-1.52l1.4-2.18l2.19,1.49Zm-6.37,4.25l-.17-.55l5.89.17c.63.02,1.99-.03,4.06-.17l-.17.61-3.05.41-.08,1.28-.1,5.79c-.02.95-.03,2.85.04,5.68l.14,5.58c.08.02.24.05.48.09.66.11,1.07.18,1.25.2l1.32.15.17.58-5.36-.11-4.6.11.11-.58l1.97-.25l1.11-.18.04-1.6.06-3.08v-3.7-5.64l-.1-4.31c-.19-.07-1.2-.23-3.01-.48Zm-3.84,5.06l-.69-.28c0-.25-.02-.61-.04-1.1-.03-.48-.04-.85-.04-1.09-.33-.8-.85-1.42-1.56-1.89-.71-.46-1.5-.7-2.37-.7-.82,0-1.53.22-2.16.63-.7.46-1.17,1.07-1.21,1.84-.05.95.31,1.7.91,2.24.56.5,1.65,1.29,3.28,2.38c1.56,1.04,2.66,1.97,3.3,2.77.92,1.14,1.38,2.47,1.38,3.98v.83c0,2.45-1.53,4.08-3.85,4.91-1.06.38-2.2.58-3.4.58-1.3,0-2.56-.24-3.78-.71l-.6,3.01-.66.17c.1-.46.23-1.49.36-3.09.17-1.95.21-3.61.21-4.98v-1.24l.6.17c0,.15,0,.27,0,.35c0,.33.02.67.06,1.01.01.07-.05.47.15,1.13.47,1.51,1.65,2.48,3.19,3.01.46.16.92.24,1.38.24.57,0,1.21-.17,1.91-.52c1.38-.68,2.07-1.72,2.07-3.14c0-1.77-1.22-3.34-3.66-4.72-3.4-1.92-5.1-4.23-5.1-6.92c0-1.88.93-3.26,2.78-4.16.93-.45,2.03-.68,3.32-.68c1.12,0,2.37.17,3.72.52.16-.62.33-1.41.5-2.36l.68-.06c-.45,3.57-.68,6.19-.68,7.87Zm-27.69,5.36c0,1.04.01,2.01.04,2.9l.1,3.1c.03.89.04,1.68.04,2.38.22.08.79.18,1.71.28l1.33.15.12.58-4.12-.11c-3.15-.08-5.05-.02-5.72.18l.11-.7c.41,0,1.02-.06,1.81-.17.44-.06.84-.13,1.21-.21.04-1.15.06-2.27.07-3.36l.04-5.7c.01-.94,0-2.07-.01-3.39c0-.15,0-1.29-.03-3.42l-.04-2.52-3.11-.35-.06-.55l8.25-.06c3.49-.02,5.8.39,6.9,1.23c1.11.85,1.66,1.8,1.66,2.87c0,.97-.46,2.04-1.39,3.19-.83,1.04-1.74,1.8-2.73,2.27c1.56,2.74,3.43,5.58,5.61,8.51c1,1.35,1.8,2.31,2.39,2.89l-1.24.24c-.7-.43-1.82-1.41-3.37-2.92-.62-.6-1.58-1.62-2.87-3.04-.26-.29-.74-.79-1.41-1.55l-2.54-2.9c-.95.12-1.88.18-2.75.18Zm0-.91c2.36,0,4.17-.57,5.42-1.71.75-.68,1.33-1.64,1.41-2.9.11-1.79-.88-3.12-2.65-3.96-.98-.47-2.3-.71-3.93-.71h-.11v2.53l-.14,6.75Zm-20.84-9.04c-.54-.13-1.55-.29-3.02-.47l-.11-.55l6.24.12c1.53.03,3.27,0,5.22-.07c1.23-.05,1.94-.1,2.15-.15l.09-.49.12-.86.69-.13c-.05.38-.18,1.56-.38,3.52l-.25,2.5.04-.04-.59-.24v-2.01c-.19-.46-1.51-.82-3.96-1.08-1.06-.11-1.92-.17-2.57-.17c0,.93-.01,1.96-.04,3.1l-.13,5.16c3,0,4.99-.16,5.95-.49.14-.42.24-.83.3-1.24l.63-.06-.35,2.25-.45,3.13-.55-.22.06-.92c.01-.21.03-.53.06-.98-.86-.44-2.74-.66-5.64-.66c0,.36-.08.71-.07,1.06l.24,8.44c3.52,0,5.83-.34,6.9-1.03.16-.4.37-1.24.63-2.5l.68-.19-.6,3.7c-.07.4-.17,1.11-.3,2.12-.04.29-.05.56-.05.82l-.6-.11v-1.73c-.12-.05-.63-.08-1.51-.11l-2.78-.1-4.09-.09c-.92-.02-2.61.04-5.06.18l.17-.65c.9,0,1.89-.13,2.96-.38l.17-10.48c.01-.61,0-1.64-.04-3.09l-.16-4.81Zm-26.77-.47l-.11-.55l1.86.07l1.98.04l5.27-.12-.11.55c-1.35,0-2.26.16-2.74.47.35.89.58,1.49.7,1.8l.84,2.07c.15.37.49,1.15,1,2.35c1,2.37,1.93,4.48,2.77,6.32.79,1.73,1.22,2.61,1.31,2.63l1.05-2.22l2.15-4.64c1.84-3.97,2.93-6.77,3.27-8.37-.94-.11-1.84-.25-2.7-.41l-.13-.55l4.33.12l1.62-.04c.3-.01.8-.03,1.49-.07l-.18.55c-.33.11-.63.19-.91.25s-.54.12-.78.16c-.31.47-.91,1.55-1.8,3.22-.1.19-.4.78-.91,1.76l-1,1.92c-.43.84-.79,1.55-1.08,2.13l-1.59,3.19c-.25.49-.74,1.49-1.46,2.99l-2.56,5.37-1.6-3.37-6.57-14.09c-.87-1.87-1.41-2.92-1.62-3.12l-.59-.17-.73-.15-.47-.09Zm-3.95-4.25l-.75,1.17-.71,1.04-2.13-1.52l1.4-2.18l2.19,1.49Zm-6.37,4.25l-.17-.55l5.89.17c.63.02,1.99-.03,4.06-.17l-.17.61-3.05.41-.08,1.28-.1,5.79c-.02.95-.03,2.85.04,5.68l.14,5.58c.08.02.24.05.48.09.66.11,1.07.18,1.25.2l1.32.15.17.58-5.36-.11-4.6.11.11-.58l1.97-.25l1.11-.18.04-1.6.06-3.08v-3.7-5.64l-.1-4.31c-.19-.07-1.2-.23-3.01-.48Zm-26.55,19.81l.11-.58l1.73-.25c.28-.04.51-.1.69-.18.25-1,.47-4.08.65-9.25.09-2.71.14-5.72.14-9.03-.15-.08-.63-.15-1.42-.21l-1.73-.14-.17-.6l1.98-.09l4.61-.14c.91,1.29,2.02,2.73,3.33,4.36.18.22.63.78,1.37,1.66.28.34.77.91,1.44,1.71l1.52,1.81l3.86,4.53c.64.75,1.2,1.42,1.69,2.02l-.08-5.3c-.01-.64,0-1.83-.05-3.57l-.07-2.42c-.04-1.37-.18-2.62-.42-3.74l-1.42-.21c-.88-.13-1.38-.2-1.49-.2l-.17-.55l4.09.12l3.82-.12-.11.55-1.12.23-1.07.24c-.24.65-.35,1.54-.35,2.67c0,.49-.02,1.04-.07,1.64-.08,1.15-.15,2.13-.17,2.94l-.41,13.46-16.39-19.14c0,1.04.02,2.13.05,3.27l.12,3.87c.04,1.14.06,2.23.06,3.26c0,3.13.13,5.25.39,6.35.24.11.77.2,1.6.28l1.55.15.11.58-4.37-.11-3.83.13Zm-22.2-19.4l-1.09-.23-1.14-.18-.13-.55l4.2.12l2.6-.04l2.36-.07-.18.55-1.76.23c-.85.11-1.29.19-1.29.24-.01,1.1-.02,2-.03,2.67l-.05,2.74.05,5.14c.02,1.77.21,3.18.58,4.23.68,1.97,1.79,3.16,3.32,3.57.66.18,1.35.27,2.06.27c2.62,0,4.33-1.13,5.12-3.4.39-1.13.6-2.42.62-3.85l.06-4.23c.01-.51-.01-1.38-.06-2.6-.09-2.31-.12-3.85-.12-4.6l-1.49-.2c-.78-.1-1.31-.15-1.59-.15l-.23-.61l4.89.17l3.26-.17-.15.61c-1.21.2-1.89.33-2.04.41l-.07,1.35-.04,1.46v5.02c0,.44-.01,1.08-.03,1.9-.02.93-.03,1.57-.03,1.9c0,2.19-.74,4.07-2.22,5.62s-3.37,2.37-5.65,2.45l-.85.03c-1.02.03-2.11-.12-3.25-.47-1.72-.52-3.07-1.47-4.04-2.87-.93-1.34-1.41-2.93-1.41-4.77c0-.83-.01-1.75-.03-2.75l-.04-2.74c-.01-.4.02-1.07.04-2.03.02-.79.02-1.51.01-2.15c0-.85-.06-1.51-.16-2.02Zm4.5-4.33l.62-1l.79-1.24l2.19,1.49-.75,1.15c-.45.69-.69,1.06-.73,1.1-.08-.08-.42-.32-1.03-.74l-1.09-.76Zm9.78-.75l-.75,1.17-.71,1.04-2.13-1.52l1.41-2.18l2.18,1.49Zm86.96-19.56v-1.35l1.84-1.56c.06-.05.53-.46,1.43-1.24.33-.28.87-.76,1.63-1.45c1.12-1.01,1.91-1.73,2.36-2.15c1.2-1.13,1.9-1.89,2.09-2.27l-2.22-.41-.09-.55l4.09.12l3.43-.12-.24.55c-.71.12-1.3.23-1.79.34-.45.28-.99.66-1.62,1.14l-1.19.91c-.03.03-.29.24-.76.63l-4.26,3.57c.32.5.91,1.33,1.78,2.49.11.15.43.57.97,1.27l2.27,2.89c.53.67,1.13,1.41,1.8,2.24l1.66,2.02c.8.97,1.59,1.88,2.38,2.72l-.94.32c-.9-.33-2.76-1.86-5.59-4.57-1.54-1.47-2.87-2.77-4.01-3.91l-3.15-3.16-.75.55-.67.57-.45.41ZM232.74,47.4l-.11-.55l4.89.12l4.89-.12-.06.55-1.62.21c-.89.12-1.35.22-1.38.31l-.18,10.44c-.05,2.46-.01,4.67.12,6.64l.07,1.08c.28.16,1.38.34,3.3.55l.06.65c-1.68-.15-3.25-.21-4.73-.18l-5.37.11.11-.58l1.17-.13l1.25-.16c.35-.04.57-.1.66-.15c0-.53.01-1.23.03-2.08l.05-2.56c.02-.85.03-1.64.03-2.38c0-.99-.01-2.31-.04-3.96l-.12-7.41-1.12-.15c-.38-.04-1.01-.12-1.9-.25Zm-22.26.41l-1.09-.22-1.14-.18-.12-.55l4.2.12l2.6-.04l2.36-.07-.18.55-1.76.23c-.85.11-1.28.19-1.29.24c0,1.1-.01,2-.03,2.67l-.05,2.74.05,5.14c.02,1.77.21,3.18.58,4.23.69,1.97,1.79,3.16,3.32,3.57.66.18,1.35.27,2.06.27c2.63,0,4.33-1.13,5.12-3.4.39-1.13.6-2.42.62-3.85l.06-4.23c.01-.51-.01-1.38-.06-2.6-.09-2.31-.12-3.85-.12-4.6l-1.49-.2c-.78-.1-1.31-.15-1.59-.15l-.23-.61l4.89.17l3.26-.17-.15.61c-1.21.2-1.89.33-2.04.41l-.07,1.35-.04,1.46v5.02c0,.44-.01,1.08-.03,1.9-.02.93-.03,1.57-.03,1.89c0,2.19-.74,4.07-2.22,5.62s-3.36,2.37-5.65,2.45l-.85.03c-1.02.04-2.11-.12-3.25-.46-1.72-.51-3.07-1.47-4.04-2.87-.94-1.34-1.41-2.93-1.41-4.77c0-.83-.01-1.75-.03-2.75L210.6,54c0-.4.01-1.07.04-2.02.01-.79.02-1.51.01-2.15-.02-.85-.07-1.51-.17-2.02Zm-4.43,18.05c-2.15,1.14-4.82,1.7-8,1.7h-1.01l-1.52,1.73c1.72.42,2.59,1.19,2.59,2.3c0,1.06-.67,1.87-2.01,2.42-1.01.42-2.14.63-3.37.63l.2-.96c1.66,0,2.6-.39,2.83-1.18l.05-.2c.04-.13.06-.28.06-.44c0-.95-.75-1.6-2.25-1.95l2.02-2.48c-1.02,0-2.24-.29-3.64-.87-2.54-1.05-4.39-2.74-5.55-5.07-.65-1.31-.97-2.61-.97-3.91c0-2.42.7-4.54,2.08-6.37c1.34-1.77,3.17-3.07,5.49-3.89c1.67-.59,3.53-.89,5.58-.89c1.91,0,3.92.25,6.02.76.03-.04.12-.38.25-1.01l.35-1.54.69-.17c-.14.71-.29,2.02-.45,3.91-.2,2.31-.3,3.8-.3,4.47l.06.55-.66-.2v-.63c0-.62-.06-1.21-.18-1.79-.36-1.04-1.59-1.96-3.67-2.77-1.14-.44-2.21-.63-3.2-.58l-.96.06c-1.12.06-2.23.38-3.32.94-1.12.58-2.01,1.32-2.66,2.19-1.13,1.54-1.7,3.31-1.7,5.3c0,1.9.52,3.66,1.57,5.31s2.43,2.89,4.13,3.73c1.71.84,3.52,1.27,5.43,1.27c2.16,0,4.32-.55,6.45-1.64l-.43,1.27Zm-22.44-1.18c.31-.75.66-1.82,1.04-3.21l.72-.17c-.32.98-.72,3.16-1.2,6.52-.21,1.52-.32,2.51-.32,2.98l-.66-.17.11-3.36-13.33-.07.11-.58c1.13,0,2.15-.13,3.08-.38l.06-8.17-.06-10.28-1.24-.18-1.84-.23-.11-.55l5.06.12l5.22-.12-.13.55-3.42.47-.04.87-.14,7.73c-.02,1.09,0,2.82.04,5.2.03,1.47.08,2.98.14,4.53c3.17.02,5.47-.49,6.91-1.5ZM154.77,47.87c-.54-.13-1.55-.29-3.02-.47l-.11-.55l6.24.12c1.54.03,3.27,0,5.22-.07c1.23-.05,1.94-.1,2.15-.15l.09-.49.12-.86.69-.12c-.05.38-.18,1.55-.38,3.52l-.25,2.5.04-.04-.6-.26v-2.01c-.19-.46-1.51-.82-3.96-1.08-1.06-.11-1.92-.17-2.57-.17c0,.93-.01,1.96-.04,3.1L158.25,56c3,0,4.99-.16,5.95-.49.14-.42.24-.83.3-1.24l.63-.06-.35,2.25-.45,3.13-.55-.22.06-.92c.01-.21.03-.53.06-.98-.86-.44-2.74-.66-5.64-.66c0,.36-.02.71-.07,1.06l.24,8.44c3.52,0,5.83-.34,6.9-1.03.16-.4.37-1.24.63-2.5l.68-.19-.6,3.7c-.07.4-.16,1.11-.3,2.12-.03.29-.05.56-.05.82l-.61-.11v-1.72c-.12-.05-.62-.09-1.51-.11l-2.78-.1-4.09-.09c-.92-.02-2.61.04-5.06.18l.17-.65c.9,0,1.89-.13,2.96-.38l.17-10.48c.01-.61,0-1.64-.04-3.09l-.13-4.81Zm-7.1,4.59l-.69-.28c0-.25-.01-.61-.04-1.1-.03-.48-.04-.85-.04-1.09-.33-.8-.84-1.42-1.56-1.89-.71-.47-1.5-.7-2.37-.7-.82,0-1.54.21-2.16.63-.71.46-1.11,1.07-1.21,1.84c0,.95.3,1.7.91,2.25.56.5,1.65,1.29,3.28,2.38c1.56,1.04,2.65,1.97,3.3,2.77.92,1.14,1.38,2.47,1.38,3.98v.83c-.25,2.44-1.53,4.07-3.85,4.91-1.07.38-2.2.58-3.4.58-1.3,0-2.56-.24-3.78-.71l-.6,3.01-.66.17c.1-.46.23-1.49.37-3.09.17-1.95.24-3.61.21-4.98v-1.24l.6.17c0,.15,0,.27,0,.35c0,.33.02.67.06,1.01.01.07.06.44.15,1.13.58,1.47,1.65,2.48,3.19,3.01.46.16.92.24,1.38.24.57,0,1.21-.17,1.91-.52c1.38-.68,2.07-1.72,2.07-3.14c0-1.77-1.22-3.34-3.66-4.72-3.4-1.92-5.1-4.23-5.1-6.92c0-1.88.93-3.26,2.78-4.16.93-.45,2.03-.68,3.32-.68c1.12,0,2.37.17,3.72.52.16-.62.33-1.41.5-2.36l.68-.06c-.47,3.56-.69,6.18-.69,7.86Z" transform="translate(-13.18-16.48)" fill="#fff"/></svg>
